<?xml version="1.0" encoding="UTF-8" standalone="no"?>
<!-- Generator: Adobe Illustrator 19.2.0, SVG Export Plug-In . SVG Version: 6.00 Build 0)  -->

<svg
   xmlns:dc="http://purl.org/dc/elements/1.1/"
   xmlns:cc="http://creativecommons.org/ns#"
   xmlns:rdf="http://www.w3.org/1999/02/22-rdf-syntax-ns#"
   xmlns:svg="http://www.w3.org/2000/svg"
   xmlns="http://www.w3.org/2000/svg"
   xmlns:xlink="http://www.w3.org/1999/xlink"
   xmlns:sodipodi="http://sodipodi.sourceforge.net/DTD/sodipodi-0.dtd"
   xmlns:inkscape="http://www.inkscape.org/namespaces/inkscape"
   version="1.1"
   id="_x2014_ÎÓÈ_x5F_1"
   x="0px"
   y="0px"
   viewBox="0 0 496.99999 700.00001"
   xml:space="preserve"
   inkscape:version="0.91 r13725"
   sodipodi:docname="Logo Liverpool FC 1990.svg"
   width="497"
   height="700"><metadata
     id="metadata279"><rdf:RDF><cc:Work
         rdf:about=""><dc:format>image/svg+xml</dc:format><dc:type
           rdf:resource="http://purl.org/dc/dcmitype/StillImage" /><dc:title></dc:title></cc:Work></rdf:RDF></metadata><defs
     id="defs277" /><sodipodi:namedview
     pagecolor="#ffffff"
     bordercolor="#666666"
     borderopacity="1"
     objecttolerance="10"
     gridtolerance="10"
     guidetolerance="10"
     inkscape:pageopacity="0"
     inkscape:pageshadow="2"
     inkscape:window-width="1440"
     inkscape:window-height="788"
     id="namedview275"
     showgrid="false"
     inkscape:zoom="0.48548264"
     inkscape:cx="238.95515"
     inkscape:cy="471.79305"
     inkscape:window-x="0"
     inkscape:window-y="1"
     inkscape:window-maximized="1"
     inkscape:current-layer="_x2014_ÎÓÈ_x5F_1" /><style
     type="text/css"
     id="style3">
	.st0{fill-rule:evenodd;clip-rule:evenodd;fill:#FFFFFF;}
	.st1{fill:#FF0000;}
	.st2{fill-rule:evenodd;clip-rule:evenodd;}
	.st3{fill-rule:evenodd;clip-rule:evenodd;fill:#F2C21E;}
	.st4{fill-rule:evenodd;clip-rule:evenodd;fill:#FF0000;}
	.st5{fill:#11793D;}
</style><path
     d="m 118.4,420.70002 c 0,0 0,0 0,0 l 0,0 0,0 z"
     id="path4792"
     inkscape:connector-curvature="0" /><path
     d="m 73.2,420.70002 0,0 c 0,0 0,0 0,0 l 0,0 z"
     id="path4788"
     inkscape:connector-curvature="0" /><path
     d="m 128.6,381.60002 0,0 0,0 0,0 z"
     id="path129"
     inkscape:connector-curvature="0" /><path
     style="fill:none;fill-rule:evenodd;stroke:#00ffff;stroke-width:0.2;stroke-linecap:butt;stroke-linejoin:miter;stroke-miterlimit:4;stroke-dasharray:none;stroke-opacity:1"
     d="m 135.943,516.66202 0.858,1.273"
     id="path4846"
     inkscape:connector-curvature="0"
     sodipodi:nodetypes="cc" /><g
     id="g5195"
     transform="matrix(1.1049962,0,0,1.1042049,-70.125645,-495.00376)"><g
       id="g5079"><g
         id="g5073"><path
           id="path9"
           d="m 115.9,592.4 c 0.6,0.5 1.3,1 2,1.4 74.9,53.2 153.4,-0.2 164.9,-8.6 0.9,-0.7 1.4,-1.1 1.4,-1.1 2.4,-1.9 5.3,-2 8.1,0 0,0 0.4,0.3 1.1,0.8 10.3,7.6 90,62.8 165.8,8.3 0.4,-0.3 0.9,-0.6 1.3,-0.9 5.1,-4.2 10.1,-0.9 10.5,4.7 0,0 0.1,1 0.3,2.8 2.6,31 20,308.8 -179.9,415.4 l -3.1,0.8 -3.2,-0.8 C 87.5,909.8 102.3,637 105.1,600.9 c 0,-0.6 0.3,-3.3 0.3,-3.7 0.6,-7.2 7,-7.6 10.5,-4.8 z"
           style="fill:#ff0000"
           inkscape:connector-curvature="0" /><path
           id="path5069"
           d="m 117.7,609.6 c -3.2,54.7 -6.6,295 170.6,392.3 177.2,-97.3 173.6,-337.6 170.4,-392.3 -75.8,47.4 -152.3,0.6 -170.4,-12 -18.2,12.6 -94.8,59.4 -170.6,12 z"
           style="fill:#ffffff"
           inkscape:connector-curvature="0" /><path
           id="path5053"
           d="m 288.9,994.9 -0.7,0.2 -0.1,0 -0.6,-0.2 C 107,899.5 121.6,621.2 121.6,620.4 l 1.9,-1.1 c 83.9,44.4 163.6,-13.8 163.9,-14 l 1.5,0 c 0.2,0.2 80,57.1 163.8,14 l 1.9,1.1 c 0.1,0.9 16.1,271.1 -165.7,374.5 l 0,0 z"
           style="fill:#ff0000"
           inkscape:connector-curvature="0" /><path
           id="path13"
           d="m 288.2,992.3 c 170.9,-97.8 165,-344.9 164,-369.6 -79.9,39.8 -155.6,-8.9 -163.9,-14.6 -8.3,5.7 -84,55.6 -164,14.6 -1,25.3 -5.7,279.3 163.9,369.6 l 0,0 z"
           style="fill:#ffffff"
           inkscape:connector-curvature="0" /></g><g
         id="g4761"><g
           id="g4736"><path
             style="clip-rule:evenodd;fill:#ff0000;fill-rule:evenodd"
             inkscape:connector-curvature="0"
             id="path77"
             d="m 147.6,666.6 c 0,-2.7 0,-9 -0.5,-11.3 -0.6,-2.9 -2.7,-2.9 -4.3,-2.9 l 0,-2 c 2.4,0.1 4.7,0.2 7.1,0.3 2.5,-0.1 5,-0.2 7.6,-0.3 l 0,2 c -1.6,0 -3.6,0 -4.3,2.9 -0.5,2.3 -0.5,8.6 -0.5,11.3 l 0,25.1 c 0,10.9 1,12.6 7.3,12.6 2.3,0 5,0.2 7.1,-2.1 2.5,-2.6 2.8,-5.9 3.2,-10.6 l 1.2,0 -0.4,15 c -0.8,-0.1 -1.7,-0.1 -2.6,-0.3 -8.6,0.3 -17.2,0.2 -25.8,0.3 l 0,-2 c 1.6,0 3.6,0 4.3,-2.9 0.5,-2.3 0.5,-8.6 0.5,-11.3 l 0,-23.8 0.1,0 z"
             class="st4" /><path
             style="clip-rule:evenodd;fill:#ff0000;fill-rule:evenodd"
             inkscape:connector-curvature="0"
             id="path79"
             d="m 179.4,666.6 c 0,-2.7 0,-9 -0.5,-11.3 -0.6,-2.9 -2.7,-2.9 -4.3,-2.9 l 0,-2 c 2.4,0.1 4.8,0.2 7.2,0.3 2.5,-0.1 5,-0.2 7.5,-0.3 l 0,2 c -1.6,0 -3.6,0 -4.3,2.9 -0.5,2.3 -0.5,8.6 -0.5,11.3 l 0,23.9 c 0,2.7 0,9 0.5,11.3 0.6,2.9 2.7,2.9 4.3,2.9 l 0,2 c -2.3,-0.1 -4.8,-0.2 -7.2,-0.3 -2.5,0.1 -5,0.2 -7.5,0.3 l 0,-2 c 1.6,0 3.6,0 4.3,-2.9 0.5,-2.3 0.5,-8.6 0.5,-11.3 l 0,-23.9 0,0 z"
             class="st4" /><path
             style="clip-rule:evenodd;fill:#ff0000;fill-rule:evenodd"
             inkscape:connector-curvature="0"
             id="path81"
             d="m 195.9,662.8 c -1.3,-5.4 -1.9,-10.2 -6,-10.4 l 0,-2 c 2.3,0.1 4.7,0.2 7,0.3 2.4,-0.1 4.9,-0.2 7.3,-0.3 l 0,2 c -1.4,0 -3.9,0 -3.9,3.5 0,3 3,15.9 3.8,19.5 l 5.1,21.5 4.7,-19.7 c 0.9,-4.2 3.7,-17 3.7,-20.7 0,-4.2 -2,-4.2 -3.9,-4.2 l 0,-2 c 1.9,0.1 3.8,0.2 5.7,0.3 1.8,-0.1 3.5,-0.2 5.3,-0.3 l 0,2 c -4.4,-0.1 -5.2,7.1 -6.5,12.9 l -10.1,42.8 -1.5,0 -10.7,-45.2 0,0 z"
             class="st4" /><path
             style="clip-rule:evenodd;fill:#ff0000;fill-rule:evenodd"
             inkscape:connector-curvature="0"
             id="path83"
             d="m 230,666.9 c 0,-2.7 0,-9 -0.5,-11.3 -0.7,-2.9 -2.7,-2.9 -4.3,-2.9 l 0,-2.3 24.8,0 0,12.8 -1.1,0 c -1,-9.9 -3.6,-10.5 -8.8,-10.5 l -3.6,0 c -0.7,0 -1.1,-0.1 -1.2,0.3 -0.1,0.3 -0.1,1.3 -0.1,3.1 l 0,20.1 c 6.8,0.5 7.8,-4.3 8.1,-10.4 l 1.1,0 c -0.1,3.8 -0.1,7.7 -0.2,11.5 0.1,3.5 0.1,7 0.2,10.5 l -1.1,0 c -0.7,-8.9 -3.3,-9.3 -8.1,-9.3 l 0,13.9 c 0,2.5 0,6.5 0.9,8.6 1.3,3 4.4,3.1 6.4,3.1 5.2,-0.2 8.6,-1.3 9.3,-11.4 l 1.1,0 -0.4,13.7 -27.1,0 0,-2 c 1.6,0 3.6,0 4.3,-2.9 0.5,-2.3 0.5,-8.6 0.5,-11.3 l 0,-23.3 -0.2,0 z"
             class="st4" /><path
             style="clip-rule:evenodd;fill:#ff0000;fill-rule:evenodd"
             inkscape:connector-curvature="0"
             id="path85"
             d="m 266.5,656.1 c 0,-0.9 -0.1,-2.6 0.5,-3.1 0.4,-0.3 2.6,-0.1 3.2,-0.1 4.5,0 7,5.3 7,12.8 0,12.3 -4.5,12.6 -10.8,12.6 l 0,-22.2 0.1,0 z m 7.5,23 c 4.9,-0.7 9,-5.4 9,-14.6 0,-11.8 -5.8,-14 -11.4,-14 -2.1,0.1 -4.2,0.2 -6.3,0.3 -2.8,-0.1 -5.7,-0.2 -8.6,-0.3 l 0,2 c 1.6,0 3.7,-0.1 4.2,2.9 0.4,2.3 0.4,8.6 0.4,11.3 l 0,23.9 c 0,2.7 0,9 -0.4,11.2 -0.5,2.9 -2.6,2.9 -4.2,2.9 l 0,2 c 2.5,-0.1 5,-0.2 7.5,-0.3 2.4,0.1 4.7,0.2 7,0.3 l 0,-2 c -1.6,0 -3.6,0.1 -4.2,-2.9 -0.4,-2.3 -0.4,-8.5 -0.4,-11.2 l 0,-10 c 2.6,0 2.4,0.5 4.1,3.7 l 8.3,17.4 2.4,4.9 c 1.2,-0.1 2.5,-0.2 3.7,-0.3 1.5,0.1 3,0.2 4.5,0.3 l 0,-2 c -2.5,-0.7 -3.3,-1.9 -4.9,-5 l -10.7,-20.5 0,0 z"
             class="st4" /><path
             style="clip-rule:evenodd;fill:#ff0000;fill-rule:evenodd"
             inkscape:connector-curvature="0"
             id="path87"
             d="m 300,656.9 c 0,-2.1 -0.1,-3.1 0.3,-3.5 0.5,-0.5 2.5,-0.5 3.1,-0.5 4.8,0 7.1,4.2 7.1,12.5 0,9.2 -2.5,12.9 -7.7,12.9 -0.9,0 -1.9,-0.3 -2.9,-0.3 l 0,-21.1 0.1,0 z m 0,23.3 c 0.2,0 2.4,0.2 3.3,0.2 5.9,0 13,-2.9 13,-15.3 0,-10.8 -6.1,-14.3 -11.5,-14.7 -2.4,0.1 -4.7,0.2 -7.1,0.3 -2.5,-0.1 -5,-0.2 -7.5,-0.3 l 0,2 c 1.6,0 3.6,-0.1 4.2,2.9 0.4,2.3 0.4,8.6 0.4,11.4 l 0,23.8 c 0,2.7 0,9 -0.4,11.3 -0.6,2.9 -2.6,2.9 -4.2,2.9 l 0,2 c 2.5,-0.1 4.9,-0.2 7.3,-0.3 2.6,0.1 5.2,0.2 7.8,0.3 l 0,-2 c -1.8,-0.2 -4.1,0.4 -4.8,-2.9 -0.5,-2.3 -0.5,-8.6 -0.5,-11.3 l 0,-10.3 0,0 z"
             class="st4" /><path
             style="clip-rule:evenodd;fill:#ff0000;fill-rule:evenodd"
             inkscape:connector-curvature="0"
             id="path89"
             d="m 338.7,651.7 c 8.8,0 11.9,14 11.9,26.7 0,12.6 -2.7,26.8 -11.6,26.8 -9.1,0 -12.2,-13.2 -12.2,-26.6 0,-12.4 3.2,-26.9 11.9,-26.9 l 0,0 z m 0,55.9 c 10.1,0 18.2,-12.1 18.2,-29.5 0,-16.8 -8.4,-28.7 -18,-28.7 -9.7,0 -18.4,12.4 -18.4,29.3 0,17.1 8.4,28.9 18.2,28.9 l 0,0 z"
             class="st4" /><path
             style="clip-rule:evenodd;fill:#ff0000;fill-rule:evenodd"
             inkscape:connector-curvature="0"
             id="path91"
             d="m 380.1,651.7 c 8.8,0 11.9,14 11.9,26.7 0,12.6 -2.7,26.8 -11.6,26.8 -9.1,0 -12.2,-13.2 -12.2,-26.6 0,-12.4 3.3,-26.9 11.9,-26.9 l 0,0 z m 0,55.9 c 10.1,0 18.2,-12.1 18.2,-29.5 0,-16.8 -8.4,-28.7 -18,-28.7 -9.7,0 -18.4,12.4 -18.4,29.3 0.1,17.1 8.5,28.9 18.2,28.9 l 0,0 z"
             class="st4" /><path
             style="clip-rule:evenodd;fill:#ff0000;fill-rule:evenodd"
             inkscape:connector-curvature="0"
             id="path93"
             d="m 407.2,666.6 c 0,-2.7 0,-9 -0.5,-11.3 -0.7,-2.9 -2.7,-2.9 -4.3,-2.9 l 0,-2 c 2.4,0.1 4.7,0.2 7.1,0.3 2.5,-0.1 5,-0.2 7.6,-0.3 l 0,2 c -1.6,0 -3.6,0 -4.3,2.9 -0.5,2.3 -0.5,8.6 -0.5,11.3 l 0,25.1 c 0,10.9 1,12.6 7.3,12.6 2.3,0 5,0.2 7.1,-2.1 2.5,-2.6 2.8,-5.9 3.2,-10.6 l 1.2,0 -0.4,15 c -0.8,-0.1 -1.7,-0.1 -2.6,-0.3 -8.6,0.3 -17.2,0.2 -25.8,0.3 l 0,-2 c 1.6,0 3.6,0 4.3,-2.9 0.5,-2.3 0.5,-8.6 0.5,-11.3 l 0,-23.8 0.1,0 z"
             class="st4" /></g><g
           id="g4747"><path
             style="clip-rule:evenodd;fill:#ff0000;fill-rule:evenodd"
             inkscape:connector-curvature="0"
             id="path95"
             d="m 162.6,724.9 -0.8,0 c -0.4,-2.4 -0.8,-4.7 -2.3,-5.8 -1.5,-1.1 -3.5,-1 -5.1,-1 -1.4,0 -2,-0.1 -2.5,0.3 -0.2,0.2 -0.3,1.2 -0.3,2.8 l 0,12.5 c 4.7,0.3 5.4,-2.7 5.6,-6.8 l 0.8,0 c 0,2.5 -0.1,5.1 -0.1,7.6 0.1,2.3 0.1,4.6 0.1,6.9 l -0.8,0 c -0.5,-5.8 -2.3,-6 -5.6,-6 l 0,7 c 0,1.7 0,5.8 0.3,7.3 0.5,2.2 2.2,1.8 3.4,1.9 l 0,1.2 c -1.8,-0.1 -3.6,-0.2 -5.3,-0.2 -1.8,0.1 -3.5,0.2 -5.3,0.2 l 0,-1.2 c 1.1,0 2.5,0 3,-1.9 0.3,-1.5 0.3,-5.6 0.3,-7.4 l 0,-15.8 c 0,-1.8 0,-5.9 -0.3,-7.4 -0.4,-1.9 -1.9,-1.9 -3,-1.9 l 0,-1.2 c 2.1,0.1 4.1,0.2 6.2,0.2 3.7,-0.1 7.4,-0.2 11.1,-0.2 l 0.6,8.9 0,0 z"
             class="st4" /><path
             style="clip-rule:evenodd;fill:#ff0000;fill-rule:evenodd"
             inkscape:connector-curvature="0"
             id="path97"
             d="m 177.2,716.9 c 6,0 8.2,9.2 8.2,17.6 0,8.3 -1.9,17.6 -8,17.6 -6.3,0 -8.4,-8.7 -8.4,-17.5 0,-8.2 2.2,-17.7 8.2,-17.7 l 0,0 z m 0,36.7 c 6.9,0 12.5,-7.9 12.5,-19.4 0,-11.1 -5.8,-18.9 -12.3,-18.9 -6.6,0 -12.6,8.1 -12.6,19.2 -0.1,11.4 5.7,19.1 12.4,19.1 l 0,0 z"
             class="st4" /><path
             style="clip-rule:evenodd;fill:#ff0000;fill-rule:evenodd"
             inkscape:connector-curvature="0"
             id="path99"
             d="m 205.8,716.9 c 6,0 8.2,9.2 8.2,17.6 0,8.3 -1.9,17.6 -8,17.6 -6.3,0 -8.4,-8.7 -8.4,-17.5 0,-8.2 2.2,-17.7 8.2,-17.7 l 0,0 z m 0,36.7 c 6.9,0 12.5,-7.9 12.5,-19.4 0,-11.1 -5.8,-18.9 -12.3,-18.9 -6.6,0 -12.6,8.1 -12.6,19.2 -0.1,11.4 5.7,19.1 12.4,19.1 l 0,0 z"
             class="st4" /><path
             style="clip-rule:evenodd;fill:#ff0000;fill-rule:evenodd"
             inkscape:connector-curvature="0"
             id="path101"
             d="m 242.3,724.8 -0.9,0 c -0.2,-5.5 -1.5,-6.9 -4.8,-6.9 -1.3,0 -3.3,-0.3 -3.3,1.5 l 0,26.4 c 0,4.1 0.5,5.7 3.8,5.9 l 0,1.2 c -1.9,-0.1 -3.8,-0.2 -5.7,-0.2 -1.8,0.1 -3.6,0.2 -5.4,0.2 l 0,-1.2 c 3.3,-0.2 3.8,-1.8 3.8,-5.9 l 0,-26.4 c 0,-1.7 -1.5,-1.5 -2.9,-1.5 -3.4,0 -5,0.3 -5.2,6.9 l -0.7,0 0,-8.7 21,0 0.3,8.7 0,0 z"
             class="st4" /><path
             style="clip-rule:evenodd;fill:#ff0000;fill-rule:evenodd"
             inkscape:connector-curvature="0"
             id="path103"
             d="m 251,720.3 c 0,-0.4 0,-2 0.2,-2.4 0.3,-0.4 1.6,-0.3 2,-0.3 3.1,0 4.7,2.5 4.7,7.5 0,2.7 -0.3,5.1 -1.8,6.6 -1.3,1.3 -2.6,1.2 -4.1,1.2 l -1,0 0,-12.6 0,0 z m 0,14.1 1.1,0 c 1.8,0 3.8,-0.2 5.4,1.2 1.8,1.6 2.5,4.2 2.5,7.4 0,5.3 -1.5,8.5 -4.9,8.5 -1.3,0 -3,0.1 -3.6,-2.3 -0.4,-1.7 -0.4,-5.1 -0.4,-7 l 0,-7.8 -0.1,0 z m -3.5,8 c 0,1.8 0,5.9 -0.3,7.4 -0.4,1.9 -1.8,1.9 -2.9,1.9 l 0,1.2 c 1.9,-0.1 3.9,-0.2 5.8,-0.2 1.5,0.1 3,0.2 4.5,0.2 2,0 4.5,0.1 6.3,-1.4 1.9,-1.7 3.3,-4.4 3.3,-8.1 0,-3.2 -1,-5.9 -2.6,-7.7 -1.3,-1.5 -3.1,-2 -5,-2.3 l 0,-0.1 c 2.6,-1.3 5.1,-3.5 5.1,-8.6 0,-7.5 -4.8,-8.9 -8.4,-8.8 -1.4,0.1 -2.7,0.2 -4.1,0.2 -1.7,-0.1 -3.3,-0.2 -4.9,-0.2 l 0,1.2 c 1.1,0 2.5,-0.1 2.9,1.9 0.3,1.5 0.3,5.7 0.3,7.5 l 0,15.9 0,0 z"
             class="st4" /><path
             style="clip-rule:evenodd;fill:#ff0000;fill-rule:evenodd"
             inkscape:connector-curvature="0"
             id="path105"
             d="m 271.9,737.7 3.8,-15.7 3.8,15.7 -7.6,0 0,0 z m -0.5,1.8 8.5,0 1.3,5.7 c 0.3,1.3 0.7,3 0.7,4.3 0,2.2 -1.7,2.1 -2.6,2.1 l 0,1.2 c 1.7,-0.1 3.3,-0.2 5,-0.2 1.6,0.1 3.3,0.2 4.9,0.2 l 0,-1.2 c -1.2,-0.2 -2.2,-0.4 -3,-2.1 -0.6,-1.3 -1.4,-4.7 -1.8,-6.1 l -7,-28.3 -1.2,0 -5.3,21.9 c -0.9,3.6 -1.8,7.1 -2.8,10.7 -0.7,2.7 -1.4,3.6 -3.3,4 l 0,1.2 c 1.2,-0.1 2.4,-0.2 3.6,-0.2 1.3,0.1 2.5,0.2 3.8,0.2 l 0,-1.2 c -1,-0.2 -2.8,0 -2.8,-2.4 0,-2.2 1.1,-6.3 1.7,-8.4 l 0.3,-1.4 0,0 z"
             class="st4" /><path
             style="clip-rule:evenodd;fill:#ff0000;fill-rule:evenodd"
             inkscape:connector-curvature="0"
             id="path107"
             d="m 292.9,726.6 c 0,-1.8 0,-5.9 -0.3,-7.4 -0.4,-1.9 -1.9,-1.9 -3,-1.9 l 0,-1.2 c 1.7,0.1 3.3,0.2 4.9,0.2 1.8,-0.1 3.5,-0.2 5.2,-0.2 l 0,1.2 c -1.1,0 -2.5,0 -3,1.9 -0.3,1.5 -0.3,5.6 -0.3,7.4 l 0,16.5 c 0,7.1 0.7,8.3 5,8.3 1.6,0 3.5,0.1 4.9,-1.4 1.7,-1.7 1.9,-3.8 2.2,-7 l 0.9,0 -0.3,9.9 c -0.6,-0.1 -1.2,-0.1 -1.8,-0.2 -5.9,0.2 -11.9,0.2 -17.8,0.2 l 0,-1.2 c 1.1,0 2.5,0 3,-1.9 0.3,-1.5 0.3,-5.6 0.3,-7.4 l 0,-15.8 0.1,0 z"
             class="st4" /><path
             style="clip-rule:evenodd;fill:#ff0000;fill-rule:evenodd"
             inkscape:connector-curvature="0"
             id="path109"
             d="m 314.6,726.6 c 0,-1.8 0,-5.9 -0.3,-7.4 -0.4,-1.9 -1.9,-1.9 -3,-1.9 l 0,-1.2 c 1.7,0.1 3.3,0.2 4.9,0.2 1.8,-0.1 3.5,-0.2 5.2,-0.2 l 0,1.2 c -1.1,0 -2.5,0 -3,1.9 -0.3,1.5 -0.3,5.6 -0.3,7.4 l 0,16.5 c 0,7.1 0.7,8.3 5,8.3 1.6,0 3.5,0.1 4.9,-1.4 1.7,-1.7 1.9,-3.8 2.2,-7 l 0.9,0 -0.3,9.9 c -0.6,-0.1 -1.2,-0.1 -1.8,-0.2 -5.9,0.2 -11.9,0.2 -17.8,0.2 l 0,-1.2 c 1.1,0 2.5,0 3,-1.9 0.3,-1.5 0.3,-5.6 0.3,-7.4 l 0,-15.8 0.1,0 z"
             class="st4" /><path
             style="clip-rule:evenodd;fill:#ff0000;fill-rule:evenodd"
             inkscape:connector-curvature="0"
             id="path111"
             d="m 362.6,716.3 0.5,0 0.3,10.9 -0.8,0 c -0.6,-6.2 -3.3,-10.6 -7.3,-10.6 -6.2,0 -8,9.9 -8,18.3 0,8.4 2,17.4 8.1,17.4 4.8,0 6.6,-5.6 7.6,-12.3 l 0.6,0 0,12.2 -0.4,0 -0.8,-2.8 c -2.3,3 -4.6,4.1 -7.6,4.1 -7,0 -11.7,-7.3 -11.7,-18.7 0,-11.3 5.1,-19.5 12,-19.5 2.8,0 4.6,1 7,3.4 l 0.5,-2.4 0,0 z"
             class="st4" /><path
             style="clip-rule:evenodd;fill:#ff0000;fill-rule:evenodd"
             inkscape:connector-curvature="0"
             id="path113"
             d="m 369.4,726.6 c 0,-1.8 0,-5.9 -0.3,-7.4 -0.4,-1.9 -1.9,-1.9 -3,-1.9 l 0,-1.2 c 1.7,0.1 3.3,0.2 4.9,0.2 1.8,-0.1 3.5,-0.2 5.2,-0.2 l 0,1.2 c -1.1,0 -2.5,0 -3,1.9 -0.3,1.5 -0.3,5.6 -0.3,7.4 l 0,16.5 c 0,7.1 0.7,8.3 5,8.3 1.6,0 3.5,0.1 4.9,-1.4 1.7,-1.7 1.9,-3.8 2.2,-7 l 0.9,0 -0.3,9.9 c -0.6,-0.1 -1.2,-0.1 -1.8,-0.2 -5.9,0.2 -11.9,0.2 -17.8,0.2 l 0,-1.2 c 1.1,0 2.5,0 3,-1.9 0.3,-1.5 0.3,-5.6 0.3,-7.4 l 0,-15.8 0.1,0 z"
             class="st4" /><path
             style="clip-rule:evenodd;fill:#ff0000;fill-rule:evenodd"
             inkscape:connector-curvature="0"
             id="path115"
             d="m 409.2,738.2 c 0,10.2 -2.4,15.4 -8.9,15.4 -6.2,0 -9.2,-3.5 -9.2,-13.6 l 0,-13.4 c 0,-1.8 0,-5.9 -0.3,-7.4 -0.4,-1.9 -1.9,-1.9 -3,-1.9 l 0,-1.2 c 1.6,0.1 3.3,0.2 4.9,0.2 1.8,-0.1 3.5,-0.2 5.2,-0.2 l 0,1.2 c -1.1,0 -2.5,-0.1 -3,1.9 -0.3,1.5 -0.3,5.6 -0.3,7.4 l 0,13.7 c 0,7.2 1.7,11.2 6.4,11.2 4.7,0 7.1,-4 7.1,-11.5 l 0,-12.2 c 0,-2 0,-6.3 -0.3,-8 -0.5,-2.3 -1.9,-2.6 -3.2,-2.6 l 0,-1.2 c 1.3,0.1 2.6,0.2 4,0.2 1.2,-0.1 2.5,-0.2 3.8,-0.2 l 0,1.2 c -1.1,0.1 -2.3,0 -2.8,2 -0.5,2 -0.5,6.3 -0.5,8.5 l 0,10.5 0.1,0 z"
             class="st4" /><path
             style="clip-rule:evenodd;fill:#ff0000;fill-rule:evenodd"
             inkscape:connector-curvature="0"
             id="path117"
             d="m 421.8,720.3 c 0,-0.4 0,-2 0.2,-2.4 0.3,-0.4 1.6,-0.3 2,-0.3 3.1,0 4.7,2.5 4.7,7.5 0,2.7 -0.3,5.1 -1.8,6.6 -1.3,1.3 -2.6,1.2 -4.1,1.2 l -1.1,0 0,-12.6 0.1,0 z m 0,14.1 1.1,0 c 1.8,0 3.8,-0.2 5.4,1.2 1.8,1.6 2.5,4.2 2.5,7.4 0,5.3 -1.5,8.5 -4.9,8.5 -1.3,0 -3,0.1 -3.6,-2.3 -0.4,-1.7 -0.4,-5.1 -0.4,-7 l 0,-7.8 -0.1,0 z m -3.6,8 c 0,1.8 0,5.9 -0.3,7.4 -0.4,1.9 -1.8,1.9 -2.9,1.9 l 0,1.2 c 1.9,-0.1 3.9,-0.2 5.8,-0.2 1.5,0.1 3,0.2 4.5,0.2 2,0 4.5,0.1 6.3,-1.4 1.9,-1.7 3.3,-4.4 3.3,-8.1 0,-3.2 -1,-5.9 -2.6,-7.7 -1.3,-1.5 -3.1,-2 -5,-2.3 l 0,-0.1 c 2.6,-1.3 5.1,-3.5 5.1,-8.6 0,-7.5 -4.8,-8.9 -8.4,-8.8 -1.4,0.1 -2.7,0.2 -4.1,0.2 -1.7,-0.1 -3.3,-0.2 -4.9,-0.2 l 0,1.2 c 1.1,0 2.5,-0.1 2.9,1.9 0.3,1.5 0.3,5.7 0.3,7.5 l 0,15.9 0,0 z"
             class="st4" /></g></g><g
         id="g5046"><path
           id="path5044"
           d="m 211.2,773.1 c 0.3,0.2 0.5,0.4 0.8,0.6 33.3,23.7 68.2,-0.2 73.2,-3.8 0.4,-0.3 0.6,-0.4 0.6,-0.5 1.1,-1 3.6,-1.1 4.8,0 0,0 0.3,0.2 0.8,0.6 5.7,4.1 40.3,27.2 73.2,3.4 0.2,-0.1 0.3,-0.2 0.5,-0.3 2.7,-1.7 5.8,-0.5 6.3,2.8 0.1,0.4 14.4,138.1 -81.4,189.2 l 0,0 -3.7,0 c -89.9,-48 -82.7,-172.3 -81.5,-187.6 0.1,-1 0.1,-1.5 0.1,-1.5 0.4,-3.7 4.5,-4.2 6.3,-2.9 z"
           style="fill:#ff0000"
           inkscape:connector-curvature="0" /><path
           id="path11"
           d="m 288.2,957.1 c 77.1,-42.8 77.2,-146.4 75.8,-173.7 -33.4,19.8 -66.7,0.2 -75.8,-5.9 -9.1,6.2 -42.4,25.7 -75.8,5.9 -1.4,27.2 -1.3,130.9 75.8,173.7 l 0,0 z"
           style="fill:#ffffff"
           inkscape:connector-curvature="0" /><path
           class="st4"
           d="m 284.3,927.7 c 0,0 2.2,0.4 2.4,2.7 0,0 4,-3.1 17.2,-3.5 0,0 -1.3,-1.6 -6.4,-1.8 l 0,-21.4 c 0,0 2.2,0.7 2.6,-2.7 0,0 -0.7,-3.1 -5.3,-7.5 0,0 -1.1,-0.9 0,-2.7 0,0 6.4,4.6 20.1,5.1 0,0 -6.8,-5.3 -6.8,-13.3 0,0 -1.5,-7.1 -7.9,-13.3 0,0 7.7,0.2 8.2,-7.7 0,0 4,2.2 5.1,-2.4 0,0 2.6,0 2.6,-2.9 0,0 3.3,0.2 2.4,-2.9 0,0 3.1,-0.2 2.6,-3.1 0,0 2.9,-0.7 1.8,-4.2 0,0 4.6,-2.9 1.1,-11 0,0 2.4,2 2.4,-26.5 0,0 -1.1,13.3 -18.3,29 0,0 8.6,-12.6 -5.5,-36.9 0,0 -1.5,25.4 -12.6,35.4 0,0 -13.7,6.4 -13.4,25.4 0,0 -12.8,1.3 -13.4,-5.3 0,0 -0.4,-13.5 13.4,-18.6 0,0 13,-7.3 13,-13.3 0,0 1.1,-5.1 -2.6,-7.7 0,0 0.7,-1.5 5.1,-2.6 0,0 -16.1,-3.3 -26.4,7.5 0,0 -6.6,-0.9 -5.3,5.5 0,0 -6.6,-1.5 -5.3,5.1 0,0 -6.4,-1.1 -5.3,5.3 0,0 -6.6,0.4 -7.7,8.2 0,0 5.9,0.4 8.2,-7.5 2.2,-8 -0.4,-0.7 -0.4,-0.7 0,0 6.2,1.5 5.9,-4.4 0,0 6.4,1.3 5.3,-5.3 0,0 6.2,0.9 5.1,-5.3 0,0 7.3,-6 12.8,2 0,0 2.4,3.8 -0.9,7.1 0,0 -23.6,9.5 -25.3,25.9 0,0 -0.7,8.4 7.7,14.8 0,0 3.1,16.4 16.1,29.4 l 0,18.3 c 0,0 -8.4,1.5 -7.9,2.7 0,0 2.2,0.4 2.4,2.6 0,0 3.5,-3.5 15,-3.8 0,0 -1.8,-1.5 -6.8,-1.5 l 0.2,-13 c 0,0 2.6,2 2.6,-10.6 0,0 4,5.1 12.8,8 l 0,21 c -0.3,-0.3 -3.9,-0.3 -10.6,2.4 l 0,0 z"
           id="path119"
           inkscape:connector-curvature="0"
           style="clip-rule:evenodd;fill:#ff0000;fill-rule:evenodd" /></g></g><g
       id="g5124"><g
         id="g4689"><path
           id="path4640"
           d="m 288.2,451.6 c 1.1,-1.7 3,-3.2 6.6,-3.3 l 0,0 c 0.2,0 6.6,-0.5 6.7,5.5 0.1,0.7 0.2,3.7 -3.8,4.5 2.9,0.3 6.3,-0.2 9.6,-2.6 l 2.1,0.9 c 0,0.1 3.4,32.9 -18.6,46.5 l 0,17.2 c 0.3,-2.8 1,-5.3 2,-7.3 1.4,-2.7 3.3,-4.4 5.5,-4.4 2.2,0 4.2,1.7 5.5,4.4 1.3,2.6 2.1,6.2 2.1,10.1 0,3.9 -0.8,7.5 -2.1,10.1 l 0,0 c -1.4,2.7 -3.3,4.4 -5.5,4.4 -2.2,0 -4.2,-1.7 -5.5,-4.4 -1,-2 -1.7,-4.5 -2,-7.3 l 0,16.6 -5.3,0 0,-16.6 c -0.3,2.8 -1,5.3 -2,7.3 l 0,0 c -1.4,2.7 -3.3,4.4 -5.5,4.4 -2.2,0 -4.2,-1.7 -5.5,-4.4 -1.3,-2.6 -2.1,-6.2 -2.1,-10.1 0,-3.9 0.8,-7.5 2.1,-10.1 1.4,-2.7 3.3,-4.4 5.5,-4.4 2.2,0 4.2,1.7 5.5,4.4 1,2 1.7,4.5 2,7.3 l 0,-17.3 c -21.8,-13.7 -18.4,-46.3 -18.4,-46.4 l 2.1,-0.9 c 3.3,2.4 6.6,2.9 9.6,2.6 -4,-0.8 -3.8,-3.8 -3.8,-4.5 0.1,-5.9 6.5,-5.5 6.7,-5.5 l 0,0 c 3.5,0.1 5.4,1.7 6.5,3.3 l 0,0 z"
           style="fill:#ff0000"
           inkscape:connector-curvature="0" /><g
           id="g4670"><path
             style="fill:#ffffff"
             d="m 288.19922,457.5 c -2.5,1.7 -10.49922,6.09961 -18.69922,1.59961 -0.3,7.5 0.19922,32.1 18.69922,42.5 18.5,-10.4 19.00156,-35 18.60156,-42.5 -8.1,4.5 -16.10156,3.9e-4 -18.60156,-1.59961 z"
             id="path4620"
             inkscape:connector-curvature="0" /><g
             id="g4657"><path
               id="path4642"
               d="m 298.9,536.2 c 1.4,-0.3 2.7,-1.6 3.7,-3.6 l 0,0 c 0.6,-1.1 1,-2.5 1.4,-4 l -5.1,2.4 0,5.2 0,0 z"
               style="fill:#ffffff"
               inkscape:connector-curvature="0" /><path
               id="path4638"
               d="m 304.3,527 c 0.2,-1.2 0.3,-2.5 0.3,-3.9 0,-2.1 -0.2,-4.1 -0.7,-5.9 l -5.1,4.2 0,8.1 5.5,-2.5 0,0 z"
               style="fill:#ffffff"
               inkscape:connector-curvature="0" /><path
               id="path4636"
               d="m 303.5,515.9 c -0.3,-0.8 -0.6,-1.5 -0.9,-2.2 -1.2,-2.3 -2.7,-3.7 -4.4,-3.7 -1.7,0 -3.2,1.4 -4.4,3.7 -0.3,0.7 -0.7,1.5 -0.9,2.3 l 4.6,3.8 0,-6.1 1.3,0 0,6.1 4.7,-3.9 0,0 z"
               style="fill:#ffffff"
               inkscape:connector-curvature="0" /><path
               id="path4634"
               d="m 292.6,517.3 c -0.4,1.8 -0.7,3.7 -0.7,5.8 0,1.4 0.1,2.7 0.3,4 l 5.4,2.6 0,-8.2 -5,-4.2 0,0 z"
               style="fill:#ffffff"
               inkscape:connector-curvature="0" /><path
               id="path4632"
               d="m 292.5,528.7 c 0.3,1.5 0.8,2.8 1.4,3.9 1,2 2.3,3.3 3.7,3.6 l 0,-5.1 -5.1,-2.4 0,0 z"
               style="fill:#ffffff"
               inkscape:connector-curvature="0" /></g><g
             id="g4651"><path
               id="path4630"
               d="m 277.9,536.3 c 1.7,0 3.2,-1.4 4.4,-3.7 l 0,0 c 0.5,-0.9 0.9,-1.9 1.2,-3.1 l -5.5,-5.9 -5.6,6 c 0.3,1.1 0.7,2.1 1.1,3 1.2,2.3 2.7,3.7 4.4,3.7 l 0,0 z"
               style="fill:#ffffff"
               inkscape:connector-curvature="0" /><path
               id="path4628"
               d="m 283.8,528 c 0.3,-1.5 0.5,-3.1 0.5,-4.9 0,-2 -0.2,-3.8 -0.6,-5.5 l -4.8,5.1 4.9,5.3 0,0 z"
               style="fill:#ffffff"
               inkscape:connector-curvature="0" /><path
               id="path4626"
               d="m 283.2,516.1 c -0.3,-0.9 -0.6,-1.7 -1,-2.4 -1.2,-2.3 -2.7,-3.7 -4.4,-3.7 -1.7,0 -3.2,1.4 -4.4,3.7 -0.4,0.7 -0.7,1.5 -0.9,2.3 l 5.4,5.8 5.3,-5.7 0,0 z"
               style="fill:#ffffff"
               inkscape:connector-curvature="0" /><path
               id="path4624"
               d="m 272.2,517.5 c -0.4,1.7 -0.6,3.6 -0.6,5.6 0,1.8 0.2,3.4 0.5,5 l 5,-5.4 -4.9,-5.2 0,0 z"
               style="fill:#ffffff"
               inkscape:connector-curvature="0" /></g><g
             id="g4664"><path
               id="path4649"
               d="m 294.80078,450.90039 c -4.1,0.1 -5.10078,2.99922 -5.30078,4.19922 0.8,0.6 2.09922,1.4 3.69922,2 -0.4,-0.7 -0.59961,-1.69961 -0.59961,-3.09961 l 2.59961,0 c 0,2 0.30078,1.80078 0.30078,1.80078 l 0.30078,0 c 3.3,-0.2 2.89844,-1.80078 2.89844,-1.80078 l 0,-0.19922 c 0,-3.2 -3.89844,-2.90039 -3.89844,-2.90039 z"
               style="fill:#ffffff"
               inkscape:connector-curvature="0" /><path
               id="path4647"
               d="m 281.5,451 c 0,0 -3.90039,-0.29961 -3.90039,2.90039 l 0,0.19922 c 0,0 -0.39961,1.60078 2.90039,1.80078 l 0.30078,0 c 0,0 0.29883,0.19922 0.29883,-1.80078 l 2.59961,0 c 0,1.4 -0.19961,2.39961 -0.59961,3.09961 1.7,-0.8 3.00117,-1.5 3.70117,-2 C 286.60078,453.89922 285.6,451.1 281.5,451 Z"
               style="fill:#ffffff"
               inkscape:connector-curvature="0" /><path
               id="path4622"
               d="m 294.8,448.3 0,0 c 0,0 0,0 0,0 l 0,0 z"
               style="fill:#ff0000"
               inkscape:connector-curvature="0" /><path
               id="path4616"
               d="m 281.6,448.3 c 0,0 0,0 0,0 l 0,0 0,0 z"
               style="fill:#ff0000"
               inkscape:connector-curvature="0" /></g></g><path
           class="st4"
           d="m 287.2,494.6 c 0,0 0.6,0.1 0.6,0.7 0,0 1,-0.8 4.3,-0.9 0,0 -0.3,-0.4 -1.6,-0.4 l 0,-5.4 c 0,0 0.6,0.2 0.7,-0.7 0,0 -0.2,-0.8 -1.3,-1.9 0,0 -0.3,-0.2 0,-0.7 0,0 1.6,1.2 5,1.3 0,0 -1.7,-1.3 -1.7,-3.3 0,0 -0.4,-1.8 -2,-3.3 0,0 1.9,0.1 2,-1.9 0,0 1,0.6 1.3,-0.6 0,0 0.7,0 0.7,-0.7 0,0 0.8,0.1 0.6,-0.7 0,0 0.8,-0.1 0.7,-0.8 0,0 0.7,-0.2 0.4,-1 0,0 1.2,-0.7 0.3,-2.8 0,0 0.6,0.5 0.6,-6.6 0,0 -0.3,3.3 -4.6,7.2 0,0 2.1,-3.2 -1.4,-9.2 0,0 -0.4,6.4 -3.1,8.8 0,0 -3.4,1.6 -3.4,6.4 0,0 -3.2,0.3 -3.4,-1.3 0,0 -0.1,-3.4 3.4,-4.6 0,0 3.2,-1.8 3.2,-3.3 0,0 0.3,-1.3 -0.7,-1.9 0,0 0.2,-0.4 1.3,-0.7 0,0 -4,-0.8 -6.6,1.9 0,0 -1.7,-0.2 -1.3,1.4 0,0 -1.7,-0.4 -1.3,1.3 0,0 -1.6,-0.3 -1.3,1.3 0,0 -1.7,0.1 -1.9,2 0,0 1.5,0.1 2,-1.9 0.6,-2 -0.1,-0.2 -0.1,-0.2 0,0 1.5,0.4 1.5,-1.1 0,0 1.6,0.3 1.3,-1.3 0,0 1.5,0.2 1.3,-1.3 0,0 1.8,-1.5 3.2,0.5 0,0 0.6,0.9 -0.2,1.8 0,0 -5.9,2.4 -6.3,6.5 0,0 -0.2,2.1 1.9,3.7 0,0 0.8,4.1 4,7.3 l 0,4.6 c 0,0 -2.1,0.4 -2,0.7 0,0 0.6,0.1 0.6,0.7 0,0 0.9,-0.9 3.7,-0.9 0,0 -0.4,-0.4 -1.7,-0.4 l 0.1,-3.3 c 0,0 0.7,0.5 0.7,-2.7 0,0 1,1.3 3.2,2 l 0,5.3 c -0.1,-0.2 -1,-0.2 -2.7,0.4 l 0,0 z"
           id="path75"
           inkscape:connector-curvature="0"
           style="clip-rule:evenodd;fill:#ff0000;fill-rule:evenodd" /></g><g
         id="g4564"><path
           class="st5"
           d="m 83.2,517.9 c -1.5,-0.2 -7.8,-0.6 -9.2,2.6 0,0.1 -0.9,2.1 0.1,3.6 0.7,0.9 1.9,1.3 3.6,1.1 0,0 1.5,0 2.3,-1.2 0.6,-0.9 0.7,-2.2 0,-3.9 -0.1,-0.3 -0.5,-0.5 -0.8,-0.4 -0.3,0.1 -0.5,0.5 -0.4,0.8 0.5,1.2 0.5,2.2 0.1,2.7 -0.4,0.6 -1.3,0.6 -1.3,0.6 -0.9,0.1 -2,0 -2.5,-0.6 -0.5,-0.7 -0.2,-1.9 0,-2.3 0.9,-2.2 6.2,-2 8.1,-1.8 0.2,0 0.4,-0.1 0.6,-0.2 1.3,-1.5 5.3,-5.3 7.6,-5 0.5,0.1 0.9,0.4 1.3,0.9 0.1,0.1 0.3,1.4 0.3,1.4 -0.1,0.7 -0.8,1.5 -1.9,2.2 -0.3,0.2 -0.4,0.6 -0.2,0.9 0.2,0.3 0.6,0.4 0.9,0.2 1.4,-0.9 2.3,-1.9 2.5,-3.1 l -0.5,-2.3 c -0.5,-0.8 -1.2,-1.4 -2.2,-1.5 -3.1,-0.3 -7.5,4.3 -8.4,5.3 z"
           id="path181"
           inkscape:connector-curvature="0"
           style="fill:#11793d" /><path
           class="st5"
           d="m 102.3,530.3 c -0.7,2.4 1.7,5 1.8,5.1 0.3,0.3 0.7,0.3 0.9,0 0.3,-0.3 0.3,-0.7 0,-0.9 -0.6,-0.6 -1.9,-2.4 -1.5,-3.8 0.3,-1 1.3,-1.7 3.2,-2.1 0,0.1 1.2,0.6 1.4,1.3 0.2,0.5 -0.3,1.2 -0.7,1.6 -0.2,0.3 -0.2,0.7 0,0.9 0.3,0.2 0.7,0.2 0.9,0 0.9,-1 1.3,-2 1,-2.9 -0.4,-1.5 -2.4,-2.1 -2.6,-2.2 -2.6,0.5 -4,1.5 -4.4,3 z"
           id="path183"
           inkscape:connector-curvature="0"
           style="fill:#11793d" /><path
           class="st5"
           d="m 113.7,500.7 c 0,0.1 0.1,1.7 1.4,2.5 0.9,0.5 2,0.5 3.3,-0.1 0.3,-0.1 0.5,-0.5 0.3,-0.9 -0.1,-0.3 -0.5,-0.5 -0.9,-0.3 -0.6,0.3 -1.5,0.5 -2.1,0.2 -0.7,-0.4 -0.7,-1.4 -0.7,-1.4 0,-2 1.5,-2.2 1.8,-2.2 4.1,0 4.2,2.3 4.2,2.4 0,1.6 -0.4,2.9 -1.2,3.7 -1.1,1 -2.5,1 -2.5,1 -0.4,0 -0.7,0.3 -0.7,0.6 0,0.4 0.3,0.7 0.6,0.7 0.1,0 2,0.1 3.4,-1.3 1.1,-1 1.7,-2.6 1.7,-4.6 0,0 -0.1,-3.8 -5.5,-3.8 -1.1,0 -3.1,0.7 -3.1,3.5 z"
           id="path185"
           inkscape:connector-curvature="0"
           style="fill:#11793d" /><path
           class="st5"
           d="m 136.2,506.3 c -0.7,2.5 -7,24.1 -4.1,27.9 0.4,0.5 0.9,0.7 1.4,0.7 -0.1,0 4.3,2.2 9.7,-0.2 6,-2.6 10.7,-9.4 14.1,-20.3 0.1,-0.3 -0.1,-0.7 -0.4,-0.8 -0.3,-0.1 -0.7,0.1 -0.8,0.4 -3.2,10.5 -7.7,17.1 -13.3,19.5 -4.9,2.1 -8.9,0.2 -8.9,0.1 -0.4,-0.1 -0.5,-0.1 -0.7,-0.3 -1.8,-2.5 1.7,-17.7 4.3,-26.7 0.1,-0.3 -0.1,-0.7 -0.4,-0.8 -0.4,-0.1 -0.8,0.1 -0.9,0.5 z"
           id="path187"
           inkscape:connector-curvature="0"
           style="fill:#11793d" /><path
           class="st5"
           d="m 107,505.8 c -0.4,0 -0.7,0.3 -0.7,0.7 0,0.4 0.3,0.7 0.7,0.7 l 29.8,0 c 0.4,0 0.7,-0.3 0.7,-0.7 0,-0.4 -0.3,-0.7 -0.7,-0.7 l -29.8,0 z"
           id="path189"
           inkscape:connector-curvature="0"
           style="fill:#11793d" /><path
           class="st5"
           d="m 106.9,505.8 c -0.3,0.1 -0.5,0.5 -0.4,0.8 2.6,9 6.2,24.2 4.3,26.7 -0.1,0.2 -0.3,0.2 -0.4,0.2 -0.3,0.1 -6.6,2.3 -13.7,-1.2 -7,-3.4 -12.4,-10.9 -16,-22.3 -0.1,-0.3 -0.5,-0.5 -0.8,-0.4 -0.3,0.1 -0.5,0.5 -0.4,0.8 3.8,11.8 9.4,19.5 16.7,23.1 7.7,3.7 14.2,1.4 14.5,1.3 0.3,0 0.8,-0.2 1.2,-0.7 2.9,-3.8 -3.4,-25.4 -4.1,-27.9 -0.2,-0.3 -0.6,-0.5 -0.9,-0.4 z"
           id="path191"
           inkscape:connector-curvature="0"
           style="fill:#11793d" /><path
           class="st5"
           d="m 134.5,529.4 c -0.3,0.9 0.1,1.9 1,2.9 0.2,0.3 0.7,0.3 0.9,0 0.3,-0.2 0.3,-0.7 0,-0.9 -0.4,-0.4 -0.9,-1.1 -0.7,-1.6 0.2,-0.7 1.3,-1.2 1.7,-1.3 1.5,0.5 2.6,1.2 2.8,2.1 0.4,1.4 -0.9,3.2 -1.5,3.8 -0.2,0.3 -0.2,0.7 0,0.9 0.3,0.3 0.7,0.2 0.9,0 0.1,-0.1 2.5,-2.7 1.8,-5.1 -0.4,-1.4 -1.8,-2.5 -4.1,-3.1 -0.4,0.2 -2.4,0.8 -2.8,2.3 z"
           id="path193"
           inkscape:connector-curvature="0"
           style="fill:#11793d" /><path
           class="st5"
           d="m 121.6,500.9 c 0,2 0.6,3.6 1.7,4.6 1.5,1.4 3.4,1.3 3.4,1.3 0.4,0 0.6,-0.3 0.6,-0.7 0,-0.4 -0.3,-0.6 -0.7,-0.6 0,0 -1.4,0 -2.5,-1 -0.8,-0.8 -1.2,-2 -1.2,-3.7 0,-0.1 0.1,-2.4 4.2,-2.4 0.3,0 1.8,0.1 1.8,2.2 0,0 -0.1,1 -0.7,1.4 -0.6,0.3 -1.5,0.1 -2.1,-0.2 0.3,0.1 0.5,0.5 0.3,0.9 -0.1,0.3 -0.5,0.5 -0.9,0.3 1.3,0.6 2.5,0.6 3.3,0.1 1.2,-0.8 1.4,-2.4 1.4,-2.4 0,-2.8 -2,-3.6 -3.1,-3.6 -5.4,0.1 -5.5,3.8 -5.5,3.8 z"
           id="path195"
           inkscape:connector-curvature="0"
           style="fill:#11793d" /><path
           class="st5"
           d="m 148.1,516 c -0.4,0.2 -2.6,1.8 -2.4,3.7 0.1,1.1 1,2.1 2.6,2.8 0,0 1.5,0.8 2.8,0.2 0.8,-0.4 1.4,-1.2 1.6,-2.4 0.1,-0.4 -0.2,-0.7 -0.5,-0.8 -0.4,-0.1 -0.7,0.2 -0.8,0.5 -0.2,0.8 -0.5,1.3 -0.9,1.5 -0.6,0.3 -1.4,0 -1.7,-0.2 -0.8,-0.4 -1.8,-1 -1.9,-1.8 -0.1,-1 1.2,-2.1 1.7,-2.4 1.4,-0.4 2.7,-0.4 3.5,0.3 1.4,1.1 1.4,3.6 1.4,3.6 0,0.2 0.1,0.4 0.3,0.5 0.2,0.1 0.4,0.2 0.6,0.1 0.1,0 6.1,-1.9 9.3,0.2 1.1,0.7 1.7,1.8 1.9,3.3 0,0 0,2.2 -1.3,3.6 -0.8,0.8 -1.9,1.2 -3.3,1.2 -0.2,0 -2.2,-0.3 -2.2,-3.1 0,-0.2 0.3,-2.2 2.9,-2.2 0.1,0 0.6,0.2 0.6,0.2 0.4,0.3 0.5,1 0.5,2 0,0.4 0.3,0.7 0.7,0.7 0.4,0 0.7,-0.3 0.7,-0.7 0,-1.4 -0.3,-2.4 -1,-3 l -1.5,-0.5 c -3,0 -4,2.3 -4.1,3.5 0,3.3 2.3,4.4 3.5,4.5 1.9,0 3.3,-0.5 4.3,-1.6 1.7,-1.8 1.7,-4.5 1.7,-4.6 -0.2,-1.9 -1.1,-3.4 -2.5,-4.3 -3.1,-2 -7.9,-1 -9.7,-0.5 -0.1,-1 -0.3,-2.7 -1.8,-3.8 -1.3,-1.1 -2.9,-1.2 -5,-0.5 z m 6.8,5 c 0,0 0,0 0,0 0,0.1 0,0 0,0 z"
           id="path197"
           inkscape:connector-curvature="0"
           style="fill:#11793d" /><path
           class="st5"
           d="m 255.8,512.4 c 0,0.1 -0.7,2.1 0.3,3.4 0.6,0.8 1.5,1.2 2.8,1.2 -0.2,0 1.1,0.5 2.3,-0.1 1,-0.5 1.6,-1.6 1.9,-3.3 0.1,-0.4 -0.2,-0.7 -0.5,-0.8 -0.4,-0.1 -0.7,0.2 -0.8,0.5 -0.2,1.2 -0.6,2 -1.2,2.3 -0.7,0.4 -1.4,0 -1.4,0 -1.1,-0.1 -1.7,-0.3 -2,-0.7 -0.5,-0.7 -0.2,-1.9 -0.1,-2.3 1.3,-4 5.6,-2.9 5.8,-2.9 2.4,0 3.4,5.9 3.5,9.5 0,7.8 -2,11.3 -3.6,12.8 -1.7,1.5 -3.3,1.4 -3.4,1.4 -4.6,0 -7.6,-0.9 -8.7,-2.7 -1,-1.7 -0.1,-3.6 0,-3.6 0.9,-2.4 2.1,-3.8 3.5,-4.2 1,-0.3 2,0 2.9,0.4 0,0 0,0 0,0 -0.2,0.8 -0.3,1.5 -0.3,2.1 0,0.8 0.2,1.5 0.7,1.9 1,0.9 2.4,0.5 2.6,0.4 1.1,0 2,-0.4 2.5,-1.1 0.3,-0.5 0.5,-1.1 0.5,-1.6 0,-0.9 -0.3,-1.7 -0.4,-1.8 -1.4,-3.2 -10.3,-5 -11.7,-5.2 -0.8,-0.9 -5.3,-5.7 -8.6,-5.3 -1,0.1 -1.7,0.7 -2.3,1.6 0,0 0,0 0,0 0,0.1 -0.5,2.2 -0.5,2.2 0.2,1.1 1,2.2 2.5,3.1 0.3,0.2 0.7,0.1 0.9,-0.2 0.2,-0.3 0.1,-0.7 -0.2,-0.9 -1.1,-0.7 -1.7,-1.4 -1.9,-2.2 l 0.3,-1.3 c 0.4,-0.7 0.8,-1 1.3,-1 2.3,-0.3 6.3,3.5 7.6,5 0.1,0.1 0.2,0.2 0.4,0.2 3.8,0.7 10.1,2.5 11,4.5 0.2,0.4 0.5,1.6 0,2.2 -0.3,0.4 -0.8,0.6 -1.6,0.6 -0.4,0.1 -1.1,0.2 -1.5,-0.1 -0.4,-0.3 -0.4,-1.2 -0.1,-2.4 0.4,0 0.5,0.2 0.7,0.4 0.3,0.2 0.4,0.3 0.4,0.3 0.2,0.2 0.6,0.2 0.9,0 0.2,-0.1 0.2,-0.3 0.2,-0.5 0,-0.1 0,-0.2 -0.1,-0.3 -0.1,-0.1 -0.2,-0.1 -0.3,-0.2 0.1,0 0.1,0 0.2,0.1 -0.1,-0.1 -3.2,-2.8 -6.3,-2 -1.9,0.5 -3.4,2.2 -4.4,5 0,0 -1.3,2.5 0.1,4.8 1.4,2.2 4.6,3.3 9.8,3.3 0,0 2.2,0.2 4.3,-1.7 2.7,-2.4 4.1,-7.1 4.1,-13.8 0,-1.1 -0.4,-10.8 -4.6,-10.8 -2.1,-0.4 -6.1,-0.3 -7.5,3.8 z m -15.8,1.9 c 0,0 0,0 0,0 0,0 0,0 0,0 z"
           id="path199"
           inkscape:connector-curvature="0"
           style="fill:#11793d" /><path
           class="st5"
           d="m 224.5,529.4 c -0.3,0.9 0.1,1.9 1,2.9 0.2,0.3 0.7,0.3 0.9,0 0.3,-0.2 0.3,-0.7 0,-0.9 -0.4,-0.4 -0.9,-1.1 -0.7,-1.6 0.2,-0.7 1.3,-1.2 1.7,-1.3 1.5,0.5 2.6,1.2 2.8,2.1 0.4,1.4 -0.9,3.2 -1.5,3.8 -0.3,0.3 -0.2,0.7 0,0.9 0.3,0.3 0.7,0.2 0.9,0 0.1,-0.1 2.5,-2.7 1.8,-5.1 -0.4,-1.4 -1.8,-2.5 -4.1,-3.1 -0.3,0.2 -2.3,0.8 -2.8,2.3 z"
           id="path201"
           inkscape:connector-curvature="0"
           style="fill:#11793d" /><path
           class="st5"
           d="m 211.7,500.9 c 0,2 0.6,3.6 1.7,4.6 1.5,1.4 3.4,1.3 3.4,1.3 0.4,0 0.6,-0.3 0.6,-0.7 0,-0.4 -0.3,-0.6 -0.7,-0.6 0,0 -1.4,0 -2.5,-1 -0.8,-0.8 -1.2,-2 -1.2,-3.7 0,-0.1 0.1,-2.4 4.2,-2.4 0.3,0 1.8,0.1 1.8,2.2 0,0 -0.1,1 -0.7,1.4 -0.6,0.3 -1.5,0.1 -2.1,-0.2 -0.3,-0.1 -0.7,0 -0.9,0.3 -0.1,0.3 0,0.7 0.3,0.9 1.3,0.6 2.4,0.6 3.3,0.1 1.2,-0.8 1.4,-2.4 1.4,-2.4 0,-2.8 -2,-3.6 -3.1,-3.6 -5.4,0.1 -5.5,3.8 -5.5,3.8 z"
           id="path203"
           inkscape:connector-curvature="0"
           style="fill:#11793d" /><path
           class="st5"
           d="m 196.9,505.8 c -0.3,0.1 -0.5,0.5 -0.4,0.8 2.6,9 6.2,24.2 4.3,26.7 -0.1,0.2 -0.3,0.2 -0.4,0.2 -0.3,0.1 -4.3,2 -9.2,-0.1 -5.6,-2.4 -10.1,-9 -13.3,-19.5 -0.1,-0.3 -0.5,-0.5 -0.8,-0.4 -0.3,0.1 -0.5,0.5 -0.4,0.8 3.3,10.9 8.1,17.8 14.1,20.3 5.4,2.3 9.8,0.2 10,0.1 0.3,0.1 0.8,-0.2 1.1,-0.7 2.9,-3.8 -3.4,-25.4 -4.1,-27.9 -0.1,-0.2 -0.5,-0.4 -0.9,-0.3 z"
           id="path205"
           inkscape:connector-curvature="0"
           style="fill:#11793d" /><path
           class="st5"
           d="m 197.1,505.8 c -0.4,0 -0.7,0.3 -0.7,0.7 0,0.4 0.3,0.7 0.7,0.7 l 29.8,0 c 0.4,0 0.7,-0.3 0.7,-0.7 0,-0.4 -0.3,-0.7 -0.7,-0.7 l -29.8,0 z"
           id="path207"
           inkscape:connector-curvature="0"
           style="fill:#11793d" /><path
           class="st5"
           d="m 226.3,506.3 c -0.7,2.5 -7,24.1 -4.1,27.9 0.4,0.5 0.9,0.7 1.4,0.7 0.1,0.1 6.6,2.4 14.3,-1.4 7.3,-3.6 13,-11.3 16.7,-23.1 0.1,-0.3 -0.1,-0.7 -0.4,-0.8 -0.3,-0.1 -0.7,0.1 -0.8,0.4 -3.7,11.4 -9.1,18.9 -16,22.3 -7.1,3.5 -13.4,1.3 -13.5,1.3 -0.3,0 -0.5,-0.1 -0.6,-0.2 -1.8,-2.5 1.7,-17.7 4.3,-26.7 0.1,-0.3 -0.1,-0.7 -0.4,-0.8 -0.5,-0.2 -0.8,0 -0.9,0.4 z"
           id="path209"
           inkscape:connector-curvature="0"
           style="fill:#11793d" /><path
           class="st5"
           d="m 192.4,530.3 c -0.7,2.4 1.7,5 1.8,5.1 0.3,0.3 0.7,0.3 0.9,0 0.3,-0.3 0.3,-0.7 0,-0.9 -0.6,-0.6 -1.9,-2.4 -1.5,-3.8 0.3,-1 1.3,-1.7 3.2,-2.1 0,0.1 1.2,0.6 1.4,1.3 0.2,0.5 -0.3,1.2 -0.7,1.6 -0.2,0.3 -0.2,0.7 0,0.9 0.3,0.2 0.7,0.2 0.9,0 0.9,-1 1.3,-2 1,-2.9 -0.4,-1.5 -2.4,-2.1 -2.6,-2.2 -2.6,0.5 -4,1.5 -4.4,3 z"
           id="path211"
           inkscape:connector-curvature="0"
           style="fill:#11793d" /><path
           class="st5"
           d="m 203.7,500.7 c 0,0.1 0.1,1.7 1.4,2.5 0.9,0.5 2,0.5 3.3,-0.1 0.3,-0.1 0.5,-0.5 0.3,-0.9 -0.1,-0.3 -0.5,-0.5 -0.9,-0.3 -0.6,0.3 -1.5,0.5 -2.1,0.2 -0.7,-0.4 -0.7,-1.4 -0.7,-1.4 0,-2 1.5,-2.2 1.8,-2.2 4.1,0 4.2,2.3 4.2,2.4 0,1.6 -0.4,2.9 -1.2,3.7 -1.1,1 -2.5,1 -2.5,1 -0.4,0 -0.7,0.3 -0.7,0.6 0,0.4 0.3,0.7 0.6,0.7 0.1,0 2,0.1 3.4,-1.3 1.1,-1 1.7,-2.6 1.7,-4.6 0,0 -0.1,-3.8 -5.5,-3.8 -1,0 -3.1,0.7 -3.1,3.5 z"
           id="path213"
           inkscape:connector-curvature="0"
           style="fill:#11793d" /><path
           class="st5"
           d="m 180.9,516.4 c -1.5,1.1 -1.7,2.8 -1.8,3.8 -1.8,-0.5 -6.6,-1.4 -9.7,0.5 -1.4,0.9 -2.3,2.3 -2.5,4.2 0,0.2 -0.1,2.8 1.7,4.6 1,1.1 2.5,1.6 4.3,1.6 1.3,-0.1 3.5,-1.1 3.5,-4.4 -0.1,-1.3 -1.1,-3.5 -4.2,-3.5 0.1,0 -1.4,0.5 -1.4,0.5 -0.7,0.6 -1,1.6 -1,3 0,0.4 0.3,0.7 0.7,0.7 0.4,0 0.7,-0.3 0.7,-0.7 0,-1 0.2,-1.7 0.5,-2 l 0.5,-0.2 c 2.7,0 2.9,2 2.9,2.3 0,2.8 -2,3 -2.3,3 -1.4,0 -2.5,-0.4 -3.3,-1.2 -1.4,-1.4 -1.3,-3.6 -1.3,-3.6 0.2,-1.4 0.8,-2.5 1.9,-3.2 3.2,-2.1 9.3,-0.2 9.3,-0.2 0.2,0.1 0.4,0 0.6,-0.1 0.2,-0.1 0.3,-0.3 0.3,-0.5 0,0 -0.1,-2.5 1.4,-3.6 0.8,-0.6 2.1,-0.7 3.7,-0.2 0.3,0.3 1.6,1.3 1.5,2.3 -0.1,0.8 -1,1.4 -1.8,1.7 -0.3,0.2 -1.1,0.5 -1.7,0.2 -0.4,-0.2 -0.7,-0.7 -0.9,-1.5 -0.1,-0.4 -0.4,-0.6 -0.8,-0.5 -0.4,0.1 -0.6,0.4 -0.5,0.8 0.2,1.2 0.8,2 1.6,2.4 1.3,0.6 2.8,-0.2 2.9,-0.2 1.6,-0.7 2.5,-1.7 2.6,-2.8 0.2,-1.9 -2,-3.5 -2.3,-3.6 -2.2,-0.7 -3.9,-0.6 -5.1,0.4 z m -1.9,4.6 0,0 c 0,0 0,0.1 0,0 0,0 0,0 0,0 z"
           id="path215"
           inkscape:connector-curvature="0"
           style="fill:#11793d" /><path
           class="st5"
           d="m 240.4,505.8 c -0.4,0 -12.1,0.9 -31.9,21.4 -0.1,0.1 -2.1,2.4 -1.3,4.7 0.5,1.5 2,2.6 4.5,3.2 0,0 1.5,0.4 2.9,-0.5 1,-0.7 1.6,-1.8 1.9,-3.4 -0.1,-1.4 -1.1,-3.9 -4.1,-4.1 -0.4,0 -0.7,0.3 -0.7,0.6 0,0.4 0.3,0.7 0.6,0.7 2.6,0.2 2.9,2.4 2.9,2.7 -0.2,1 -0.6,1.9 -1.3,2.3 -0.9,0.6 -1.9,0.3 -1.9,0.3 -2,-0.5 -3.3,-1.3 -3.6,-2.3 -0.5,-1.6 1,-3.4 1.1,-3.4 19.3,-20 30.9,-21 31,-21 1.8,-0.3 3,-0.1 3.7,0.5 0.9,0.9 0.6,2.4 0.6,2.4 -0.5,0.8 -1.2,1.4 -1.9,1.4 -1,0.1 -1.9,-0.9 -2.2,-1.3 -0.2,-0.3 -0.6,-0.3 -0.9,-0.1 -0.3,0.2 -0.3,0.6 -0.1,0.9 0.1,0.1 1.5,1.9 3.4,1.8 1.2,-0.1 2.2,-0.9 3,-2.3 0.1,-0.3 0.5,-2.4 -0.9,-3.8 -0.9,-0.8 -2.6,-1.1 -4.8,-0.7 z"
           id="path217"
           inkscape:connector-curvature="0"
           style="fill:#11793d" /><path
           class="st5"
           d="m 220.8,499.5 c -0.1,0.2 -1.2,2.5 -0.2,4 0.5,0.8 1.5,1.2 2.9,1.1 0,0 2.4,0.2 4.1,-1.3 0.9,-0.9 1.4,-2.1 1.4,-3.6 0,-0.4 -0.3,-0.7 -0.7,-0.7 -0.4,0 -0.7,0.3 -0.7,0.7 0,1.1 -0.3,2 -1,2.6 -1.2,1.1 -3.1,0.9 -3.2,0.9 -1,0 -1.5,-0.1 -1.8,-0.5 -0.5,-0.7 0.1,-2.3 0.3,-2.7 1.1,-2.5 6,-2.7 6,-2.7 20.1,0.6 22.8,11.8 22.9,12.3 0.1,0.3 0.1,0.7 0.1,0.9 0,0.6 -0.2,1.1 -0.5,1.5 -0.8,1 -2.3,1 -2.3,1 0,0 0,0 0,0 0,0 -0.7,-0.4 -0.7,-0.4 l -0.2,-1.3 c 0.1,0.4 -0.2,0.5 -0.5,0.5 -0.4,0.1 -0.7,-0.4 -0.8,-0.8 l 0.4,2.3 1.7,0.9 c 0.2,0 2.2,0 3.4,-1.5 0.7,-0.9 0.9,-2.1 0.6,-3.5 -0.1,-0.5 -3,-12.7 -24.2,-13.3 -0.1,0.2 -5.5,0.4 -7,3.6 z"
           id="path219"
           inkscape:connector-curvature="0"
           style="fill:#11793d" /><path
           class="st5"
           d="m 262.1,489 c -32.9,4.7 -31.9,29.4 -31.9,29.6 0.9,2.8 2.2,4.3 3.9,4.7 2.7,0.5 5.1,-2.2 5.2,-2.3 0.6,-0.7 0.8,-1.5 0.6,-2.3 -0.3,-1.6 -2.2,-2.6 -2.4,-2.7 -0.3,-0.2 -0.7,-0.1 -0.9,0.3 -0.2,0.3 -0.1,0.7 0.3,0.9 0.4,0.2 1.5,1 1.7,1.8 0.1,0.4 0,0.7 -0.3,1.1 0,0 -2,2.2 -3.9,1.9 -1.2,-0.2 -2.1,-1.5 -2.9,-3.6 0,-0.8 -0.8,-23.6 30.8,-28.1 0,0 1,0 1.9,0.9 1.1,1.2 1.6,3.4 1.3,6.3 0,0.3 -0.1,5.1 -3.5,5.1 0,0 -1.8,0 -2.9,-1.2 -0.7,-0.8 -1,-1.9 -0.9,-3.4 0,-0.1 0.3,-3.2 3.4,-3.6 0.4,0 0.6,-0.4 0.6,-0.7 0,-0.4 -0.4,-0.6 -0.7,-0.6 -3.4,0.4 -4.5,3.3 -4.5,4.8 -0.2,1.8 0.3,3.3 1.2,4.4 1.5,1.6 3.7,1.6 3.8,1.6 3.8,0 4.8,-4.2 4.8,-6.4 0.3,-3.4 -0.3,-5.8 -1.7,-7.3 -1.4,-1.3 -2.9,-1.2 -3,-1.2 z"
           id="path221"
           inkscape:connector-curvature="0"
           style="fill:#11793d" /><path
           class="st5"
           d="m 246.6,485.7 c -0.6,0.1 -15.9,2.8 -25.4,13 -0.2,0.3 -0.2,0.7 0,0.9 0.3,0.2 0.7,0.2 0.9,0 9.2,-9.9 24.6,-12.6 24.7,-12.6 1.7,-0.4 3.1,-0.3 4.1,0.5 2.1,1.5 2.2,5 2.2,5.1 0.2,1.2 0,2.1 -0.6,2.7 -1.5,1.6 -4.8,1.4 -4.9,1.4 -0.8,-0.3 -1.4,-0.8 -1.7,-1.6 -0.9,-2.1 0.5,-5.2 0.5,-5.2 0.2,-0.3 0,-0.7 -0.3,-0.9 -0.3,-0.2 -0.7,0 -0.9,0.3 -0.1,0.1 -1.7,3.7 -0.5,6.3 0.5,1.1 1.4,1.9 2.7,2.4 0.3,0 4.2,0.3 6.1,-1.8 0.9,-1 1.2,-2.2 0.9,-3.8 0,-0.1 -0.1,-4.1 -2.7,-6 -1.3,-1 -3.1,-1.2 -5.1,-0.7 z"
           id="path223"
           inkscape:connector-curvature="0"
           style="fill:#11793d" /></g><g
         id="g4711"><path
           sodipodi:nodetypes="cccccccccc"
           d="m 495.6,574.2 -0.7,0.7 -413.8,0 -0.7,-0.7 0,-33.6 0.7,-0.7 413.8,0 0.7,0.7 0,33.6 z"
           id="path233"
           inkscape:connector-curvature="0" /><path
           sodipodi:nodetypes="ccccc"
           inkscape:connector-curvature="0"
           id="polygon231"
           d="m 81.7,540.99998 0,32.8 412.6,0 0,-32.8 z"
           style="clip-rule:evenodd;fill:#f2c21e;fill-rule:evenodd" /><g
           id="g4541"><path
             style="clip-rule:evenodd;fill:#ff0000;fill-rule:evenodd"
             inkscape:connector-curvature="0"
             id="path235"
             d="m 108.8,564.4 c 0,3.2 0.1,3.3 2.6,3.6 l 0,0.7 c -1.3,0 -2.7,-0.1 -4,-0.1 -1.4,0 -2.7,0.1 -4.1,0.1 l 0,-0.7 c 2.6,-0.3 2.7,-0.5 2.7,-3.6 l 0,-4.1 -2.5,-5.3 c -0.3,-0.7 -2.3,-5.7 -3.3,-6.9 -0.5,-0.6 -0.9,-0.5 -1.6,-0.6 l 0,-0.7 c 1.2,0 2.4,0.1 3.6,0.1 1.3,0 2.5,-0.1 3.8,-0.1 l 0,0.7 c -0.6,0 -2,-0.1 -2,1.1 0,0.9 0.4,1.6 0.7,2.3 l 3.5,8 1.7,-3.4 c 0.6,-1.2 2.6,-5.4 2.6,-6.6 0,-1.3 -1.2,-1.3 -1.9,-1.4 l 0,-0.7 c 1,0 1.9,0.1 2.9,0.1 0.9,0 1.7,-0.1 2.6,-0.1 l 0,0.7 c -1.5,0.2 -2.1,1.5 -2.8,3 l -4.6,9.5 0,4.4 0.1,0 z"
             class="st4" /><path
             style="clip-rule:evenodd;fill:#ff0000;fill-rule:evenodd"
             inkscape:connector-curvature="0"
             id="path237"
             d="m 125.7,547.3 c 4.7,0 6.4,5.5 6.4,10.4 0,4.9 -1.4,10.5 -6.2,10.5 -4.9,0 -6.5,-5.2 -6.5,-10.4 -0.1,-4.9 1.6,-10.5 6.3,-10.5 l 0,0 z m 0,21.8 c 5.4,0 9.7,-4.7 9.7,-11.5 0,-6.6 -4.5,-11.2 -9.6,-11.2 -5.2,0 -9.8,4.8 -9.8,11.4 -0.1,6.7 4.4,11.3 9.7,11.3 l 0,0 z"
             class="st4" /><path
             style="clip-rule:evenodd;fill:#ff0000;fill-rule:evenodd"
             inkscape:connector-curvature="0"
             id="path239"
             d="m 154.3,559.9 c 0,6 -1.9,9.1 -7,9.1 -4.8,0 -7.1,-2.1 -7.1,-8.1 l 0,-7.9 c 0,-1.1 0,-3.5 -0.3,-4.4 -0.3,-1.1 -1.4,-1.1 -2.3,-1.1 l 0,-0.7 c 1.3,0 2.5,0.1 3.8,0.1 1.4,0 2.7,-0.1 4.1,-0.1 l 0,0.7 c -0.9,0 -2,0 -2.3,1.1 -0.2,0.9 -0.2,3.3 -0.2,4.4 l 0,8.2 c 0,4.2 1.3,6.7 5,6.7 3.7,0 5.6,-2.4 5.6,-6.8 l 0,-7.3 c 0,-1.2 0,-3.7 -0.3,-4.7 -0.4,-1.4 -1.4,-1.5 -2.5,-1.5 l 0,-0.7 c 1,0 2.1,0.1 3.1,0.1 1,0 2,-0.1 3,-0.1 l 0,0.7 c -0.9,0 -1.8,0 -2.2,1.2 -0.4,1.2 -0.4,3.7 -0.4,5.1 l 0,6 0,0 z"
             class="st4" /><path
             style="clip-rule:evenodd;fill:#ff0000;fill-rule:evenodd"
             inkscape:connector-curvature="0"
             id="path241"
             d="m 160.7,554 0.5,0 0.9,-6.5 c 0.1,-0.7 -0.5,-1.5 -1.1,-1.5 -0.6,0 -1.2,0.8 -1.1,1.5 l 0.8,6.5 0,0 z"
             class="st4" /><path
             style="clip-rule:evenodd;fill:#ff0000;fill-rule:evenodd"
             inkscape:connector-curvature="0"
             id="path243"
             d="m 167.5,553.1 c 0,-1.1 0,-3.5 -0.3,-4.4 -0.3,-1.1 -1.4,-1.1 -2.3,-1.1 l 0,-0.7 c 1.3,0 2.5,0.1 3.8,0.1 1.4,0 2.7,-0.1 4.1,-0.1 l 0,0.7 c -0.9,0 -2,0 -2.3,1.1 -0.3,0.9 -0.3,3.4 -0.3,4.4 l 0,9.8 c 0,4.2 0.5,4.9 3.9,4.9 1.3,0 2.7,0.1 3.8,-0.8 1.3,-1 1.5,-2.3 1.7,-4.1 l 0.7,0 -0.2,5.9 c -0.4,0 -0.9,0 -1.4,-0.1 -4.6,0.1 -9.2,0.1 -13.8,0.1 l 0,-0.8 c 0.9,0 2,0 2.3,-1.1 0.3,-0.9 0.3,-3.4 0.3,-4.4 l 0,-9.4 0,0 z"
             class="st4" /><path
             style="clip-rule:evenodd;fill:#ff0000;fill-rule:evenodd"
             inkscape:connector-curvature="0"
             id="path245"
             d="m 184.3,553.1 c 0,-1.1 0,-3.5 -0.3,-4.4 -0.3,-1.1 -1.4,-1.1 -2.3,-1.1 l 0,-0.7 c 1.3,0 2.5,0.1 3.8,0.1 1.4,0 2.7,-0.1 4.1,-0.1 l 0,0.7 c -0.9,0 -2,0 -2.3,1.1 -0.3,0.9 -0.3,3.4 -0.3,4.4 l 0,9.8 c 0,4.2 0.5,4.9 3.9,4.9 1.3,0 2.7,0.1 3.8,-0.8 1.3,-1 1.5,-2.3 1.7,-4.1 l 0.7,0 -0.2,5.9 c -0.4,0 -0.9,0 -1.4,-0.1 -4.6,0.1 -9.2,0.1 -13.8,0.1 l 0,-0.8 c 0.9,0 2,0 2.3,-1.1 0.3,-0.9 0.3,-3.4 0.3,-4.4 l 0,-9.4 0,0 z"
             class="st4" /><path
             style="clip-rule:evenodd;fill:#ff0000;fill-rule:evenodd"
             inkscape:connector-curvature="0"
             id="path247"
             d="m 208.7,549.5 c -0.8,-1.5 -1.5,-2 -2.9,-2 l 0,-0.7 c 0.9,0 1.7,0.1 2.5,0.1 0.7,0 1.4,-0.1 2.1,-0.1 l 11.3,17.1 0.1,0 0,-9.2 c 0,-1.4 0,-3.7 -0.2,-5.1 -0.3,-1.9 -1,-1.7 -2.4,-2 l 0,-0.7 c 1,0 2,0.1 2.9,0.1 0.9,0 1.8,-0.1 2.8,-0.1 l 0,0.7 c -1,0.1 -1.7,0 -2,1.5 -0.3,1.1 -0.3,4.5 -0.3,5.8 l 0,14.3 -0.8,0 c -0.6,-0.9 -1.2,-1.8 -1.8,-2.8 l -10.5,-15.7 -0.1,0 0,11.2 c 0,1.2 0,3.7 0.4,4.9 0.5,1.3 1.3,1.2 2.3,1.4 l 0,0.7 c -1,0 -2.1,-0.1 -3.1,-0.1 -1,0 -2,0.1 -3,0.1 l 0,-0.9 c 1,-0.1 2,-0.2 2.3,-1.6 0.2,-1.2 0.2,-3.3 0.2,-4.6 l 0,-12.3 0.2,0 z"
             class="st4" /><path
             style="clip-rule:evenodd;fill:#ff0000;fill-rule:evenodd"
             inkscape:connector-curvature="0"
             id="path249"
             d="m 229.1,553.2 c 0,-1.1 0,-3.5 -0.3,-4.4 -0.3,-1.1 -1.4,-1.1 -2.3,-1.1 l 0,-0.9 13.3,0 0,5 -0.6,0 c -0.5,-3.9 -1.9,-4.1 -4.7,-4.1 l -1.9,0 c -0.4,0 -0.6,0 -0.7,0.1 -0.1,0.1 0,0.5 0,1.2 l 0,7.8 c 3.6,0.2 4.2,-1.7 4.3,-4.1 l 0.6,0 c 0,1.5 -0.1,3 -0.1,4.5 0.1,1.4 0.1,2.8 0.1,4.1 l -0.6,0 c -0.4,-3.5 -1.8,-3.6 -4.3,-3.6 l 0,5.4 c 0,1 0,2.5 0.5,3.3 0.7,1.2 2.3,1.2 3.4,1.2 2.8,-0.1 4.6,-0.5 5,-4.4 l 0.6,0 -0.2,5.3 -14.6,0 0,-0.7 c 0.9,0 2,0 2.3,-1.1 0.3,-0.9 0.3,-3.4 0.3,-4.4 l 0,-9.1 -0.1,0 z"
             class="st4" /><path
             style="clip-rule:evenodd;fill:#ff0000;fill-rule:evenodd"
             inkscape:connector-curvature="0"
             id="path251"
             d="m 245.1,551.6 c -0.7,-2.1 -1,-4 -3.2,-4.1 l 0,-0.7 c 1.3,0 2.5,0.1 3.8,0.1 1.3,0 2.6,-0.1 3.9,-0.1 l 0,0.7 c -0.8,0 -2.1,0 -2.1,1.4 0,1.2 1.6,6.2 2,7.6 l 2.7,8.4 2.5,-7.7 c 0.5,-1.6 2,-6.6 2,-8.1 0,-1.7 -1.1,-1.6 -2.1,-1.6 l 0,-0.7 c 1,0 2,0.1 3,0.1 0.9,0 1.9,-0.1 2.8,-0.1 l 0,0.7 c -2.3,0 -2.8,2.8 -3.4,5 l -5.4,16.8 -0.8,0 -5.7,-17.7 0,0 z"
             class="st4" /><path
             style="clip-rule:evenodd;fill:#ff0000;fill-rule:evenodd"
             inkscape:connector-curvature="0"
             id="path253"
             d="m 263.3,553.2 c 0,-1.1 0,-3.5 -0.3,-4.4 -0.3,-1.1 -1.4,-1.1 -2.3,-1.1 l 0,-0.9 13.3,0 0,5 -0.6,0 c -0.5,-3.9 -1.9,-4.1 -4.7,-4.1 l -1.9,0 c -0.4,0 -0.6,0 -0.7,0.1 -0.1,0.1 0,0.5 0,1.2 l 0,7.8 c 3.7,0.2 4.2,-1.7 4.3,-4.1 l 0.6,0 c 0,1.5 -0.1,3 -0.1,4.5 0.1,1.4 0.1,2.8 0.1,4.1 l -0.6,0 c -0.4,-3.5 -1.8,-3.6 -4.3,-3.6 l 0,5.4 c 0,1 0,2.5 0.5,3.3 0.7,1.2 2.3,1.2 3.4,1.2 2.8,-0.1 4.6,-0.5 5,-4.4 l 0.6,0 -0.2,5.3 -14.6,0 0,-0.7 c 0.9,0 2,0 2.3,-1.1 0.3,-0.9 0.3,-3.4 0.3,-4.4 l 0,-9.1 -0.1,0 z"
             class="st4" /><path
             style="clip-rule:evenodd;fill:#ff0000;fill-rule:evenodd"
             inkscape:connector-curvature="0"
             id="path255"
             d="m 282.9,549 c 0,-0.4 -0.1,-1 0.3,-1.2 0.2,-0.1 1.4,0 1.7,0 2.4,0 3.8,2.1 3.8,5 0,4.8 -2.4,4.9 -5.8,4.9 l 0,-8.7 0,0 z m 4.1,9 c 2.7,-0.3 4.9,-2.1 4.9,-5.7 0,-4.6 -3.1,-5.5 -6.1,-5.5 -1.1,0 -2.3,0.1 -3.4,0.1 -1.5,0 -3.1,-0.1 -4.6,-0.1 l 0,0.7 c 0.9,0 2,0 2.3,1.1 0.2,0.9 0.2,3.4 0.2,4.4 l 0,9.4 c 0,1.1 0,3.5 -0.2,4.4 -0.3,1.1 -1.4,1.1 -2.3,1.1 l 0,0.7 c 1.3,0 2.7,-0.1 4,-0.1 1.3,0 2.5,0.1 3.8,0.1 l 0,-0.6 c -0.9,0 -2,0 -2.3,-1.1 -0.2,-0.9 -0.2,-3.4 -0.2,-4.4 l 0,-3.9 c 1.4,0 1.3,0.2 2.2,1.5 l 4.5,6.8 1.3,1.9 c 0.7,0 1.3,-0.1 2,-0.1 0.8,0 1.6,0.1 2.4,0.1 l 0,-0.8 c -1.4,-0.3 -1.8,-0.7 -2.6,-2 l -5.9,-8 0,0 z"
             class="st4" /><path
             style="clip-rule:evenodd;fill:#ff0000;fill-rule:evenodd"
             inkscape:connector-curvature="0"
             id="path257"
             d="m 314.4,552.4 0,0 -2.2,9 c -0.7,2.7 -1.5,5.3 -2.2,7.9 l -0.9,0 -4.7,-17.9 c -0.2,-0.8 -0.6,-2.5 -1,-3.1 -0.5,-0.8 -1.2,-0.8 -1.9,-0.9 l 0,-0.7 c 1.3,0 2.6,0.1 3.9,0.1 1.3,0 2.6,-0.1 4,-0.1 l 0,0.7 c -0.9,0.1 -2.4,0.1 -2.4,1.6 0,0.8 0.6,3.2 0.8,4 l 2.8,11.4 0.1,0 4.2,-17.8 0.9,0 4.4,17.5 0.1,0 1.8,-7.2 c 0.3,-1.5 1.4,-6 1.4,-7.3 0,-2.1 -1,-2.1 -2.3,-2.2 l 0,-0.7 c 1,0 1.9,0.1 2.9,0.1 0.9,0 1.8,-0.1 2.8,-0.1 l 0,0.7 c -2,-0.1 -2.4,2.5 -2.8,4.4 l -4.4,17.4 -0.9,0 -4.4,-16.8 0,0 z"
             class="st4" /><path
             style="clip-rule:evenodd;fill:#ff0000;fill-rule:evenodd"
             inkscape:connector-curvature="0"
             id="path259"
             d="m 330,559.7 3,-9.3 2.9,9.3 -5.9,0 0,0 z m -0.4,1 6.6,0 1,3.4 c 0.2,0.8 0.5,1.8 0.5,2.6 0,1.3 -1.3,1.2 -2.1,1.3 l 0,0.7 c 1.3,0 2.6,-0.1 3.9,-0.1 1.3,0 2.5,0.1 3.8,0.1 l 0,-0.7 c -0.9,-0.1 -1.7,-0.3 -2.3,-1.2 -0.5,-0.8 -1.1,-2.8 -1.4,-3.7 l -5.4,-16.9 -0.9,0 -4.1,13 c -0.8,2.1 -1.5,4.2 -2.2,6.4 -0.5,1.6 -1.1,2.2 -2.6,2.4 l 0,0.7 c 0.9,0 1.8,-0.1 2.8,-0.1 1,0 2,0.1 2.9,0.1 l 0,-0.7 c -0.8,-0.1 -2.2,0 -2.2,-1.4 0,-1.3 0.9,-3.8 1.3,-5 l 0.4,-0.9 0,0 z"
             class="st4" /><path
             style="clip-rule:evenodd;fill:#ff0000;fill-rule:evenodd"
             inkscape:connector-curvature="0"
             id="path261"
             d="m 346.4,553.1 c 0,-1.1 0,-3.5 -0.3,-4.4 -0.3,-1.1 -1.4,-1.1 -2.3,-1.1 l 0,-0.7 c 1.3,0 2.5,0.1 3.8,0.1 1.4,0 2.7,-0.1 4.1,-0.1 l 0,0.7 c -0.9,0 -2,0 -2.3,1.1 -0.3,0.9 -0.3,3.4 -0.3,4.4 l 0,9.8 c 0,4.2 0.5,4.9 3.9,4.9 1.3,0 2.7,0.1 3.8,-0.8 1.3,-1 1.5,-2.3 1.7,-4.1 l 0.7,0 -0.2,5.9 c -0.4,0 -0.9,0 -1.4,-0.1 -4.6,0.1 -9.2,0.1 -13.8,0.1 l 0,-0.8 c 0.9,0 2,0 2.3,-1.1 0.3,-0.9 0.3,-3.4 0.3,-4.4 l 0,-9.4 0,0 z"
             class="st4" /><path
             style="clip-rule:evenodd;fill:#ff0000;fill-rule:evenodd"
             inkscape:connector-curvature="0"
             id="path263"
             d="m 366,560.5 0,3.9 c 0,3.2 0.1,3.3 2.6,3.6 l 0,0.7 c -1.3,0 -2.6,-0.1 -3.9,-0.1 -1.4,0 -2.7,0.1 -4.1,0.1 l 0,-0.7 c 0.9,0 2,0 2.3,-1.1 0.3,-0.9 0.3,-3.4 0.3,-4.4 l 0,-9.4 c 0,-1.1 0,-3.5 -0.3,-4.4 -0.3,-1.1 -1.4,-1.1 -2.3,-1.1 l 0,-0.7 c 1.3,0 2.5,0.1 3.8,0.1 1.4,0 2.8,-0.1 4.1,-0.1 l 0,0.7 c -2.6,0.3 -2.6,0.5 -2.6,3.6 l 0,8.1 c 1.3,-1.7 6.4,-8.4 6.4,-10.4 0,-1.4 -1.2,-1.2 -2,-1.3 l 0,-0.7 c 1.1,0 2.1,0.1 3.2,0.1 0.9,0 1.8,-0.1 2.8,-0.1 l 0,0.7 c -1.5,0 -1.8,0.5 -2.7,1.9 l -4.3,6.6 3.7,5.3 c 0.3,0.5 3.1,5.1 4.4,6.2 0.5,0.5 0.9,0.4 1.6,0.5 l 0,0.7 c -1.4,0 -2.8,-0.1 -4.3,-0.1 -1.4,0 -2.7,0.1 -4.1,0.1 l 0,-0.8 c 0.5,0 2.2,0.1 2.2,-1 0,-0.7 -1.7,-3.2 -2.1,-3.8 l -3.3,-4.9 -1.4,2.2 0,0 z"
             class="st4" /><path
             style="clip-rule:evenodd;fill:#ff0000;fill-rule:evenodd"
             inkscape:connector-curvature="0"
             id="path265"
             d="m 390,559.7 3,-9.3 2.9,9.3 -5.9,0 0,0 z m -0.4,1 6.6,0 1,3.4 c 0.2,0.8 0.5,1.8 0.5,2.6 0,1.3 -1.3,1.2 -2.1,1.3 l 0,0.7 c 1.3,0 2.6,-0.1 3.9,-0.1 1.3,0 2.5,0.1 3.8,0.1 l 0,-0.7 c -0.9,-0.1 -1.7,-0.3 -2.3,-1.2 -0.5,-0.8 -1.1,-2.8 -1.4,-3.7 l -5.4,-16.9 -0.9,0 -4.1,13 c -0.7,2.1 -1.5,4.2 -2.2,6.4 -0.5,1.6 -1.1,2.2 -2.6,2.4 l 0,0.7 c 0.9,0 1.8,-0.1 2.8,-0.1 1,0 2,0.1 2.9,0.1 l 0,-0.7 c -0.8,-0.1 -2.2,0 -2.2,-1.4 0,-1.3 0.9,-3.8 1.3,-5 l 0.4,-0.9 0,0 z"
             class="st4" /><path
             style="clip-rule:evenodd;fill:#ff0000;fill-rule:evenodd"
             inkscape:connector-curvature="0"
             id="path267"
             d="m 406.4,553.1 c 0,-1.1 0,-3.5 -0.3,-4.4 -0.3,-1.1 -1.4,-1.1 -2.3,-1.1 l 0,-0.7 c 1.3,0 2.5,0.1 3.8,0.1 1.4,0 2.7,-0.1 4.1,-0.1 l 0,0.7 c -0.9,0 -2,0 -2.3,1.1 -0.3,0.9 -0.3,3.4 -0.3,4.4 l 0,9.8 c 0,4.2 0.5,4.9 3.9,4.9 1.3,0 2.7,0.1 3.8,-0.8 1.3,-1 1.5,-2.3 1.7,-4.1 l 0.7,0 -0.2,5.9 c -0.4,0 -0.9,0 -1.4,-0.1 -4.6,0.1 -9.2,0.1 -13.8,0.1 l 0,-0.8 c 0.9,0 2,0 2.3,-1.1 0.3,-0.9 0.3,-3.4 0.3,-4.4 l 0,-9.4 0,0 z"
             class="st4" /><path
             style="clip-rule:evenodd;fill:#ff0000;fill-rule:evenodd"
             inkscape:connector-curvature="0"
             id="path269"
             d="m 430.9,547.3 c 4.7,0 6.4,5.5 6.4,10.4 0,4.9 -1.4,10.5 -6.2,10.5 -4.9,0 -6.5,-5.2 -6.5,-10.4 -0.1,-4.9 1.7,-10.5 6.3,-10.5 l 0,0 z m 0,21.8 c 5.4,0 9.7,-4.7 9.7,-11.5 0,-6.6 -4.5,-11.2 -9.6,-11.2 -5.2,0 -9.8,4.8 -9.8,11.4 0,6.7 4.5,11.3 9.7,11.3 l 0,0 z"
             class="st4" /><path
             style="clip-rule:evenodd;fill:#ff0000;fill-rule:evenodd"
             inkscape:connector-curvature="0"
             id="path271"
             d="m 445.7,549.5 c -0.8,-1.5 -1.5,-2 -2.9,-2 l 0,-0.7 c 0.9,0 1.7,0.1 2.5,0.1 0.7,0 1.4,-0.1 2.1,-0.1 l 11.3,17.1 0.1,0 0,-9.2 c 0,-1.4 0,-3.7 -0.2,-5.1 -0.3,-1.9 -1,-1.7 -2.4,-2 l 0,-0.7 c 1,0 2,0.1 2.9,0.1 0.9,0 1.8,-0.1 2.8,-0.1 l 0,0.7 c -1,0.1 -1.7,0 -2,1.5 -0.3,1.1 -0.3,4.5 -0.3,5.8 l 0,14.3 -0.8,0 c -0.6,-0.9 -1.2,-1.8 -1.8,-2.8 l -10.5,-15.7 -0.1,0 0,11.2 c 0,1.2 0,3.7 0.4,4.9 0.5,1.3 1.3,1.2 2.3,1.4 l 0,0.7 c -1,0 -2.1,-0.1 -3.1,-0.1 -1,0 -2,0.1 -3,0.1 l 0,-0.9 c 1,-0.1 2,-0.2 2.3,-1.6 0.2,-1.2 0.2,-3.3 0.2,-4.6 l 0,-12.3 0.2,0 z"
             class="st4" /><path
             style="clip-rule:evenodd;fill:#ff0000;fill-rule:evenodd"
             inkscape:connector-curvature="0"
             id="path273"
             d="m 466.1,553.2 c 0,-1.1 0,-3.5 -0.3,-4.4 -0.3,-1.1 -1.4,-1.1 -2.3,-1.1 l 0,-0.9 13.3,0 0,5 -0.6,0 c -0.5,-3.9 -1.9,-4.1 -4.7,-4.1 l -1.9,0 c -0.4,0 -0.6,0 -0.7,0.1 -0.1,0.1 0,0.5 0,1.2 l 0,7.8 c 3.7,0.2 4.2,-1.7 4.3,-4.1 l 0.6,0 c 0,1.5 -0.1,3 -0.1,4.5 0.1,1.4 0.1,2.8 0.1,4.1 l -0.6,0 c -0.4,-3.5 -1.8,-3.6 -4.3,-3.6 l 0,5.4 c 0,1 0,2.5 0.5,3.3 0.7,1.2 2.3,1.2 3.4,1.2 2.8,-0.1 4.6,-0.5 5,-4.4 l 0.6,0 -0.2,5.3 -14.6,0 0,-0.7 c 0.9,0 2,0 2.3,-1.1 0.3,-0.9 0.3,-3.4 0.3,-4.4 l 0,-9.1 -0.1,0 z"
             class="st4" /></g></g><use
         x="0"
         y="0"
         xlink:href="#g4564"
         id="use4612"
         transform="matrix(-1,0,0,1,575.71276,0)"
         width="100%"
         height="100%" /></g><g
       id="g5114"><g
         id="g4796"><path
           id="path4794"
           d="m 120.8,889.1 c 8.4,0.8 7.7,10.8 7.7,10.8 l 0,0 c 0,12.8 -9.2,11.6 -10.1,11.5 l -11,0 0,7.7 c 0,11 -9.4,10.7 -10.5,10.6 -1.9,0 -10.2,-0.7 -10.2,-10.6 l 0,-7.7 -13.6,0 c -0.8,0.1 -7.3,0.7 -7.3,-11 0,0 0,0 0,0 0,0 0,0 0,0 l 0,0 c 0,-0.3 -0.7,-10 7,-11.2 -3.7,-3.5 -14.2,-15.4 -6.7,-31.1 0.3,-1 5.2,-17.5 -0.3,-24.1 -0.4,-0.4 0,-1.2 0.6,-1.1 0,0 4.9,0.8 8.4,5.4 0.3,-2.2 1,-5.9 3,-8.8 0.2,-0.7 2.3,-6.7 -1.3,-11.5 0,0 -0.1,-0.1 -0.1,-0.1 0,0 -7.4,-16 1.1,-30.2 l 0,0 c 0,0 4.8,-8.9 -1.9,-15.8 -0.4,-0.4 0,-1.2 0.6,-1.1 0,0 7.1,0.8 13.4,8.2 0.8,-3.5 3.5,-13 11.2,-20 0.4,-0.4 1.1,0 1.1,0.5 0,0 -0.4,2.6 4.9,7.6 l 0,0 c 0,0 13,13.6 6,35.2 0.8,-0.5 1.8,-0.9 3.1,-1.1 0.5,-0.1 0.9,0.6 0.6,1 0,0 -1.3,1.9 0.2,4.6 l 0,0 c 0,0 6.8,12.4 6.3,26.5 1,-1.1 2.5,-2.4 4.1,-2.7 0.5,-0.1 1,0.5 0.7,1 0,0 -4.1,6.6 -1.8,10.5 l 0,0 c 0,0 3.2,5.6 2.5,29.9 0,0 0,0 0,0 0,0 0,0 0,0 l 0,0 c 0,0 0,0 0,0 0.1,0.7 -0.1,11.4 -7.7,17.1 l 0,0 z"
           inkscape:connector-curvature="0" /><path
           style="fill:#ffffff"
           id="path4790"
           d="m 96.8,928.4 c 0,0 0.1,0 0,0 l 0.4,0 c 0,0 0,0 0,0 l 0,0 c 0,0 0,0 0,0 l 0,0 c 0.1,0 0.1,0 0.2,0 1.9,0 8.7,-0.5 8.7,-9.3 l 0,-8.4 c 0,-0.3 0.3,-0.7 0.7,-0.7 l 11.7,0 c 0,0 0.1,0 0.1,0 0,0 8.7,1.6 8.7,-10.2 l 0,0 c 0,0 0.7,-9.5 -7.4,-9.5 0,0 -0.2,0 -0.2,0 l -0.7,-0.2 c -0.5,-0.2 -0.6,-0.9 -0.1,-1.2 8.5,-5.1 8.5,-16.6 8.5,-16.7 l 0,0 c 0.7,-24 -2.3,-29.3 -2.3,-29.3 l 0,0 c -1.9,-3.2 -0.3,-7.7 0.9,-10.1 -1.6,1.1 -2.9,3 -3,3 -0.4,0.5 -1.3,0.2 -1.2,-0.4 1.3,-14.6 -6,-27.8 -6,-27.8 l 0,0 c -1.1,-2 -1,-3.6 -0.7,-4.7 -2,0.7 -3,2.1 -3,2.1 -0.4,0.5 -1.4,0 -1.1,-0.6 8.4,-22.2 -4.9,-36.2 -4.9,-36.2 l 0,0 c -3.5,-3.4 -4.7,-5.9 -5.1,-7.3 -8.5,8.4 -10.1,19.7 -10.1,19.7 -0.1,0.6 -0.8,0.8 -1.2,0.3 -4.3,-5.5 -9,-7.6 -11.6,-8.4 5.4,7.3 0.8,15.8 0.8,15.8 l 0,0 c -7.9,13.2 -1.5,28 -1.1,29 4.1,5.6 1.4,12.7 1.4,12.7 0,0 -0.1,0.1 -0.1,0.1 -2.8,4 -3,10 -3,10 0,0.6 -0.9,0.8 -1.2,0.3 -2,-3.6 -5,-5.2 -6.9,-5.8 4.4,8 -0.5,23.8 -0.5,23.8 0,0 0,0.1 0,0.1 -8.6,17.9 7.5,30.5 7.5,30.6 0.5,0.4 0.2,1.2 -0.4,1.2 -8.1,0 -7.3,9.9 -7.3,9.9 l 0,0 c 0,10.9 5.8,9.7 5.8,9.7 0,0 0.1,0 0.1,0 l 14.3,0 c 0.3,0 0.7,0.3 0.7,0.7 l 0,8.4 0,0 0,0 0,0 c -0.1,8.6 6.8,9.3 8.6,9.4 l 0,0 z"
           inkscape:connector-curvature="0" /><path
           class="st4"
           d="m 83.8,787.4 c 0,0 12.3,17 2.4,31.6 0,0 -7.5,-5.5 -4,-17.9 0.1,0 3.4,-3.4 1.6,-13.7 l 0,0 z"
           id="path131"
           inkscape:connector-curvature="0"
           style="clip-rule:evenodd;fill:#ff0000;fill-rule:evenodd" /><path
           class="st4"
           d="m 100.6,771.4 c 0,0 1.1,4 2.9,5.1 0,0 8.6,12.4 0,21.2 -0.1,0 -12.6,-6.8 -2.9,-26.3 l 0,0 z"
           id="path133"
           inkscape:connector-curvature="0"
           style="clip-rule:evenodd;fill:#ff0000;fill-rule:evenodd" /><path
           class="st4"
           d="m 107.6,887.9 c 0,0 7.1,-16.6 -10.8,-39.6 0,0 -1.5,9.7 -5.5,15.5 0,0 -7.7,9.1 -7.9,21.4 0,0 -10.4,-2.9 -10.4,-18.3 0,0 -0.2,-1.3 1.2,-3.8 1.6,-2.8 0.9,-8.2 -0.9,-15 0,0 4,1.3 6.2,5.5 0,0 0.7,-15.2 7.1,-23.9 0,0 14.1,-18.1 7.7,-26.5 0,0 9.9,6.2 11.9,21 0,0 1.1,-3.3 4,-6 0,0 -0.2,3.8 1.5,6.8 0,0 1.3,3.1 2,4.3 2,3.7 3.4,12.3 3.1,21.6 0,0 0.4,-3.8 4,-5.3 0,0 -3.1,5.1 -2.6,18.1 -0.2,0.1 0,19.1 -10.6,24.2 l 0,0 z"
           id="path135"
           inkscape:connector-curvature="0"
           style="clip-rule:evenodd;fill:#ff0000;fill-rule:evenodd" /><path
           d="m 115.3,903.8 -14.3,0 0,13.5 c 0,2 0,4 -4,4 -4,0 -4,-2 -4,-4 l 0,-13.5 -14.7,0 c -2,0 -4,0 -4,-4 0,-4 2,-4 4,-4 l 14.8,0 0,-3.4 c -1.8,-1.1 -4.1,-3.8 -4,-10.3 0,0 -0.4,-5.5 3.1,-9.7 0,0 5.3,-4.2 5.9,-9.7 0,0 6.6,8.4 6.6,18.3 0,0 0.3,7.3 -3.7,10.9 l 0,3.9 14.3,0 c 2,0 4,0 4,4 0,4 -2,4 -4,4 l 0,0 z"
           id="path227"
           inkscape:connector-curvature="0" /></g><use
         x="0"
         y="0"
         xlink:href="#g4796"
         id="use4811"
         transform="matrix(-1,0,0,1,576.7,0.29056661)"
         width="100%"
         height="100%" /></g><g
       id="g5012"><g
         id="g4951"><g
           id="g4947"><path
             style="color:#000000;font-style:normal;font-variant:normal;font-weight:normal;font-stretch:normal;font-size:medium;line-height:normal;font-family:sans-serif;text-indent:0;text-align:start;text-decoration:none;text-decoration-line:none;text-decoration-style:solid;text-decoration-color:#000000;letter-spacing:normal;word-spacing:normal;text-transform:none;direction:ltr;block-progression:tb;writing-mode:lr-tb;baseline-shift:baseline;text-anchor:start;white-space:normal;clip-rule:nonzero;display:inline;overflow:visible;visibility:visible;opacity:1;isolation:auto;mix-blend-mode:normal;color-interpolation:sRGB;color-interpolation-filters:linearRGB;solid-color:#000000;solid-opacity:1;fill:#000000;fill-opacity:1;fill-rule:evenodd;stroke:none;stroke-width:2.5;stroke-linecap:round;stroke-linejoin:round;stroke-miterlimit:4;stroke-dasharray:none;stroke-dashoffset:0;stroke-opacity:1;color-rendering:auto;image-rendering:auto;shape-rendering:auto;text-rendering:auto;enable-background:accumulate"
             d="m 284.83984,991.83594 c -18.48878,-0.0166 -52.67712,1.97546 -77.67187,10.05276 -9.33627,3.017 -22.04116,6.0739 -33.33008,8.5156 -8.40166,1.8172 -16.66439,2.9781 -23.54492,2.3008 -5.60701,-0.5521 -10.84501,-3.4454 -14.00586,-5.6192 a 1.250125,1.250125 0 0 0 -1.95313,0.918 l -3.70703,41.7031 c -7.3e-4,0.01 7.3e-4,0.01 0,0.016 -1.81625,13.9979 1.14459,23.5222 7.75586,29.1953 4.32206,3.7087 12.48288,4.1164 23.96289,2.1465 11.48002,-1.97 26.34966,-6.5056 43.99805,-13.586 29.46725,-11.822 67.85778,-11.9754 81.95703,-12.6055 14.09924,0.6301 52.48781,0.7835 81.95508,12.6055 17.64839,7.0804 32.51803,11.616 43.99805,13.586 11.48001,1.9699 19.64083,1.5622 23.96289,-2.1465 6.61127,-5.6731 9.57211,-15.1974 7.75586,-29.1953 l 0,-0.016 -3.70704,-41.7031 a 1.250125,1.250125 0 0 0 -1.95312,-0.918 c -3.16083,2.1738 -8.39885,5.0671 -14.00586,5.6192 -6.88053,0.6773 -15.14326,-0.4836 -23.54492,-2.3008 -11.28889,-2.4417 -23.99181,-5.4985 -33.32813,-8.5156 -26.64346,-8.61011 -63.7222,-10.3104 -81.11132,-10.02347 l -0.043,0 c -1.07439,-0.0177 -2.22203,-0.0282 -3.43946,-0.0293 z"
             id="path4945"
             inkscape:connector-curvature="0" /><path
             style="color:#000000;font-style:normal;font-variant:normal;font-weight:normal;font-stretch:normal;font-size:medium;line-height:normal;font-family:sans-serif;text-indent:0;text-align:start;text-decoration:none;text-decoration-line:none;text-decoration-style:solid;text-decoration-color:#000000;letter-spacing:normal;word-spacing:normal;text-transform:none;direction:ltr;block-progression:tb;writing-mode:lr-tb;baseline-shift:baseline;text-anchor:start;white-space:normal;clip-rule:nonzero;display:inline;overflow:visible;visibility:visible;opacity:1;isolation:auto;mix-blend-mode:normal;color-interpolation:sRGB;color-interpolation-filters:linearRGB;solid-color:#000000;solid-opacity:1;fill:#ffffff;fill-opacity:1;fill-rule:evenodd;stroke:none;stroke-width:2.5;stroke-linecap:round;stroke-linejoin:round;stroke-miterlimit:4;stroke-dasharray:none;stroke-dashoffset:0;stroke-opacity:1;color-rendering:auto;image-rendering:auto;shape-rendering:auto;text-rendering:auto;enable-background:accumulate"
             d="m 284.83584,994.33594 c 1.22018,10e-4 2.37155,0.0114 3.44336,0.0293 a 1.250125,1.250125 0 0 0 0.043,0 c 17.14832,-0.28597 54.23947,1.46714 80.34179,9.90236 9.49671,3.0689 22.23908,6.1311 33.57032,8.582 8.51484,1.8416 16.97227,3.0669 24.31835,2.3438 5.42682,-0.5343 10.00548,-2.9142 13.39454,-5.045 l 3.54101,39.8321 a 1.250125,1.250125 0 0 0 0.004,0.049 c 1.75862,13.5286 -1.05064,21.9672 -6.9043,26.9902 -3.12021,2.6775 -10.70699,3.5026 -21.91016,1.5801 -11.20316,-1.9224 -25.95227,-6.4045 -43.49218,-13.4414 -30.18323,-12.1093 -68.95718,-12.1604 -82.82813,-12.7832 a 1.250125,1.250125 0 0 0 -0.11328,0 c -13.87094,0.6228 -52.64683,0.6739 -82.83008,12.7832 -17.53991,7.0369 -32.28902,11.519 -43.49218,13.4414 -11.20317,1.9225 -18.78995,1.0974 -21.91016,-1.5801 -5.85366,-5.023 -8.66292,-13.4616 -6.9043,-26.9902 a 1.250125,1.250125 0 0 0 0.004,-0.049 l 3.54101,-39.8321 c 3.38907,2.1308 7.96772,4.5107 13.39454,5.045 7.34608,0.7231 15.80351,-0.5022 24.31835,-2.3438 11.33121,-2.4509 24.07552,-5.5131 33.57227,-8.582 24.47095,-7.90802 58.59508,-9.94807 76.89844,-9.93165 z"
             id="path4856"
             inkscape:connector-curvature="0" /></g><g
           id="g4819"><path
             style="clip-rule:evenodd;fill-rule:evenodd"
             d="m 202.3,1013.1 c -0.4,0.1 -43.4,13.5 -59.1,7.5 -0.4,-0.2 -0.8,-0.1 -1.2,0.1 -0.4,0.2 -0.6,0.6 -0.6,1 l -2,36.5 c 0,0 -1.3,5.8 3.4,9.8 7.8,6.6 26.6,3.7 55.7,-8.5 0.4,-0.2 36.7,-15.2 89.6,-15.2 52.9,0 89.2,15 89.6,15.2 29.1,12.3 47.9,15.1 55.7,8.5 4.7,-4 3.5,-9.8 3.4,-10.1 l -2,-36.3 c 0,-0.4 -0.2,-0.8 -0.6,-1 -0.4,-0.2 -0.8,-0.3 -1.2,-0.1 -15.7,6 -58.6,-7.4 -59.1,-7.5 -41.8,-13.4 -85.5,-12.2 -85.9,-12.2 -1.5,0 -44,-1.1 -85.7,12.3 z"
             id="path4817"
             inkscape:connector-curvature="0" /><path
             style="clip-rule:evenodd;fill:#f2c21e;fill-opacity:1;fill-rule:evenodd"
             d="m 373.3,1015.6 c 1.8,0.6 41.6,12.9 59.1,7.9 0.2,2.9 1.9,34.9 1.9,34.9 0,0.1 0.2,0.8 0.2,1.7 0,1.6 -0.4,4.1 -2.7,6 -4,3.3 -16.1,6.5 -53,-9 -0.4,-0.2 -37.2,-15.4 -90.6,-15.4 l 0,0 c -53.4,0 -90.2,15.3 -90.6,15.4 -36.9,15.5 -49,12.3 -53,9 -2.3,-1.9 -2.7,-4.4 -2.7,-6 0,-0.8 0.1,-1.4 0.1,-1.5 0,0 1.8,-32.3 1.9,-35.2 17.5,5 57.3,-7.4 59.1,-7.9 41.4,-13.3 84.6,-12.1 85.1,-12.1 1.9,0.1 44,-1 85.2,12.2 z"
             id="path57"
             inkscape:connector-curvature="0" /></g><g
           id="g4823"><path
             style="clip-rule:evenodd;fill-rule:evenodd"
             inkscape:connector-curvature="0"
             id="path59"
             d="m 267.4,1035 c -0.1,-1.3 0.5,-2.5 1.5,-2.6 0.9,-0.1 1.9,0.8 2,2.2 0.1,1.3 -0.5,2.6 -1.5,2.6 -1,0.2 -1.9,-0.8 -2,-2.2 l 0,0 z"
             class="st2" /><path
             style="clip-rule:evenodd;fill-rule:evenodd"
             inkscape:connector-curvature="0"
             id="path61"
             d="m 252.9,1016.6 -0.8,0.1 c -0.8,-4.1 -2.1,-5.1 -4.9,-4.7 -1.1,0.2 -3,0.2 -2.8,1.6 l 2.8,20 c 0.4,3.1 1,4.3 4,4 l 0.1,1 c -1.7,0.2 -3.4,0.3 -5,0.5 -1.6,0.3 -3.1,0.6 -4.8,0.9 l -0.1,-1 c 2.9,-0.6 3.2,-1.8 2.7,-5 l -2.8,-20 c -0.2,-1.3 -1.5,-0.9 -2.7,-0.8 -3,0.4 -4.4,0.8 -3.8,5.9 l -0.7,0.1 -0.9,-6.6 18.5,-2.6 1.2,6.6 0,0 z"
             class="st2" /><path
             style="clip-rule:evenodd;fill-rule:evenodd"
             inkscape:connector-curvature="0"
             id="path63"
             d="m 212,1037.4 0.7,-0.2 c 1.6,4 4.1,7.2 7.5,6.3 2.3,-0.6 3.8,-2.9 3,-6.2 -0.9,-3.8 -3.6,-4.7 -6.1,-5.4 -3,-0.8 -6.4,-2.1 -7.5,-6.8 -1.2,-4.7 0.8,-8.1 4,-8.9 1.6,-0.4 3.3,0 5,1 l 0.3,-1.8 0.3,-0.1 1.9,7.1 -0.7,0.2 c -1.5,-3.3 -3.7,-6 -6.5,-5.3 -1.9,0.5 -3,2.5 -2.4,5.2 0.8,3.3 3.2,3.9 5.3,4.5 3.5,1 7.5,2.3 8.8,7.8 1.3,5.4 -1.6,8.9 -5.1,9.8 -2,0.5 -3.8,0.1 -5.8,-1.2 l -0.3,1.9 -0.3,0.1 -2.1,-8 0,0 z"
             class="st2" /><path
             style="clip-rule:evenodd;fill-rule:evenodd"
             inkscape:connector-curvature="0"
             id="path65"
             d="m 183.4,1035.4 c -0.5,-1.3 -1.6,-4.2 -2.2,-5.2 -0.9,-1.2 -2,-0.8 -3,-0.5 l -0.4,-1.1 14.2,-5.2 2.2,6 -0.7,0.2 c -2.3,-4.5 -3.9,-4.2 -6.9,-3.1 l -2.1,0.8 c -0.4,0.2 -0.6,0.2 -0.7,0.4 0,0.2 0.2,0.6 0.5,1.5 l 3.5,9.5 c 4,-1.2 3.7,-3.7 2.8,-6.6 l 0.7,-0.2 c 0.6,1.8 1.3,3.7 1.9,5.5 0.7,1.6 1.3,3.3 1.9,4.9 l -0.7,0.2 c -1.9,-4.1 -3.5,-3.7 -6.3,-2.7 l 2.4,6.6 c 0.4,1.2 1.1,3.1 2,3.9 1.3,1.1 3.1,0.6 4.2,0.1 2.9,-1.2 4.7,-2.4 3.3,-7.3 l 0.7,-0.2 2.1,6.5 -15.5,5.7 -0.3,-0.9 c 0.9,-0.3 2.1,-0.8 2,-2.3 -0.1,-1.2 -1.2,-4.2 -1.7,-5.4 l -3.9,-11.1 0,0 z"
             class="st2" /><path
             style="clip-rule:evenodd;fill-rule:evenodd"
             inkscape:connector-curvature="0"
             id="path67"
             d="m 309,1009.1 0.1,0.1 c -0.2,1 -0.4,2.4 -0.6,3.9 -0.2,1.6 -0.3,4 -0.5,7.4 l -0.4,6.6 c -0.2,2.6 -0.2,4.5 -0.2,5.5 0,1 0.1,1.8 0.2,2.4 0.1,0.5 0.4,0.9 0.9,1.2 0.5,0.3 1.1,0.4 1.9,0.5 l 0,0.7 c -0.5,-0.1 -1.2,-0.2 -1.9,-0.3 -0.7,-0.1 -1.6,-0.3 -2.7,-0.6 -0.8,0.1 -1.6,0.2 -2.4,0.3 -0.8,0.1 -1.5,0.1 -2.3,0.1 l 0,-0.6 c 0.8,0 1.5,-0.1 2,-0.3 0.5,-0.2 0.8,-0.6 1,-1 0.2,-0.5 0.4,-1.3 0.5,-2.3 0.1,-1 0.3,-2.9 0.4,-5.5 l 0.1,-1.4 0.6,-8.9 c 0.2,-2.7 0.1,-4.4 -0.2,-5.2 -0.3,-0.8 -0.9,-1.2 -1.8,-1.2 -0.2,0 -0.3,0 -0.4,0 -0.1,0 -0.2,0 -0.3,0 l 0,-0.7 c 0.5,0 0.9,0 1.2,0 0.3,0 0.5,0 0.7,0 0.1,0 0.3,0 0.8,0.1 0.5,0 0.9,0.1 1.3,0.1 0.3,-0.2 0.6,-0.3 0.9,-0.4 0.5,-0.3 0.8,-0.4 1.1,-0.5 l 0,0 z"
             class="st2" /><path
             style="clip-rule:evenodd;fill-rule:evenodd"
             inkscape:connector-curvature="0"
             id="path69"
             d="m 328.4,1021 c -0.7,-1.2 -0.9,-2.5 -0.7,-4 0.2,-1.6 0.8,-2.8 1.7,-3.7 0.9,-0.9 2.1,-1.2 3.4,-1 1.2,0.2 2.1,0.9 2.8,2 0.6,1.2 0.8,2.6 0.6,4.3 -0.2,1.4 -0.7,2.7 -1.4,3.8 -0.7,1.1 -1.6,1.9 -2.7,2.5 -1.8,-1.4 -3.1,-2.7 -3.7,-3.9 l 0,0 z m 4.8,9.2 c 0.6,1.1 0.8,2.4 0.6,3.8 -0.2,1.6 -0.8,2.8 -1.8,3.7 -1,0.9 -2.1,1.3 -3.4,1.1 -1.5,-0.2 -2.6,-1 -3.3,-2.4 -0.7,-1.4 -1,-3.1 -0.7,-5.1 0.2,-1.4 0.6,-2.7 1.3,-3.7 0.6,-1 1.4,-1.8 2.4,-2.3 2.6,2.2 4.3,3.8 4.9,4.9 l 0,0 z m 3,-7.4 c 0.9,-1.1 1.4,-2.4 1.6,-3.9 0.3,-1.9 0,-3.6 -1,-5 -0.9,-1.4 -2.3,-2.3 -4,-2.5 -1.8,-0.3 -3.5,0.2 -4.9,1.5 -1.4,1.3 -2.3,3 -2.6,5.1 -0.2,1.4 -0.1,2.6 0.3,3.7 0.4,1.1 1.1,2.2 2,3.2 -1.5,0.7 -2.7,1.7 -3.6,2.8 -0.9,1.1 -1.4,2.5 -1.7,4 -0.3,2.1 0.1,3.9 1.1,5.4 1,1.5 2.5,2.4 4.5,2.7 2.1,0.3 3.8,-0.2 5.3,-1.4 1.5,-1.2 2.4,-2.9 2.7,-5.1 0.2,-1.5 0.1,-3 -0.5,-4.3 -0.6,-1.3 -1.6,-2.5 -3,-3.6 1.8,-0.6 3,-1.5 3.8,-2.6 l 0,0 z"
             class="st2" /><path
             style="clip-rule:evenodd;fill-rule:evenodd"
             inkscape:connector-curvature="0"
             id="path71"
             d="m 356.8,1030.1 c -1.1,1.3 -2.3,1.8 -3.6,1.5 -1.2,-0.3 -2,-1.2 -2.5,-2.8 -0.5,-1.6 -0.4,-3.5 0.1,-5.8 0.5,-2.2 1.3,-3.9 2.4,-5.1 1.1,-1.2 2.3,-1.6 3.5,-1.3 1.3,0.3 2.1,1.2 2.6,2.6 0.5,1.5 0.5,3.3 0,5.4 -0.5,2.5 -1.3,4.3 -2.5,5.5 l 0,0 z m -1,8.5 c 2.9,-2.8 4.8,-6.2 5.8,-10.3 0.7,-3.2 0.6,-5.9 -0.3,-8.3 -0.9,-2.3 -2.4,-3.7 -4.5,-4.2 -2,-0.5 -3.8,0 -5.5,1.4 -1.7,1.4 -2.8,3.4 -3.4,6 -0.5,2.3 -0.4,4.4 0.3,6.1 0.8,1.7 2,2.8 3.7,3.2 1.2,0.3 2.4,0.2 3.5,-0.3 1.1,-0.5 2,-1.3 2.8,-2.5 -1.2,3.6 -2.9,6.5 -5.1,8.7 -2.2,2.2 -4.8,3.6 -7.7,4.2 l 0.1,0.9 c 3.9,-0.5 7.4,-2.1 10.3,-4.9 l 0,0 z"
             class="st2" /><path
             style="clip-rule:evenodd;fill-rule:evenodd"
             inkscape:connector-curvature="0"
             id="path73"
             d="m 368.1,1045.7 5.4,1.7 0.2,0.1 c 2.2,0.7 3.6,0.9 4.3,0.7 0.7,-0.3 1.3,-1 1.9,-2.2 l 0.7,0.4 c -0.3,0.6 -0.6,1.1 -0.9,1.6 -0.3,0.5 -0.7,1 -1,1.5 0,0.3 0,0.6 0,0.8 0,0.2 0,0.3 -0.1,0.5 -0.1,0.3 -0.3,0.5 -0.5,0.6 -0.2,0.1 -0.5,0 -1,-0.1 -0.6,-0.2 -1.6,-0.6 -3,-1.1 -1.4,-0.5 -2.5,-0.9 -3.4,-1.2 -1,-0.3 -1.9,-0.6 -2.9,-0.9 -1,-0.3 -2,-0.6 -3,-0.9 l 0.4,-1.1 c 4.9,-2.6 8.7,-5.1 11.3,-7.6 2.7,-2.5 4.4,-5.1 5.3,-7.9 0.6,-1.9 0.8,-3.5 0.5,-4.8 -0.3,-1.3 -1,-2.1 -2.1,-2.5 -1,-0.3 -2,-0.2 -2.8,0.3 -0.9,0.6 -1.5,1.4 -1.9,2.6 -0.2,0.5 -0.3,0.9 -0.3,1.3 -0.1,0.4 -0.1,0.9 0,1.3 -0.3,0.1 -0.6,0.1 -0.8,0.1 -0.2,0 -0.5,0 -0.7,-0.1 -0.5,-0.2 -0.8,-0.5 -1,-1 -0.2,-0.5 -0.1,-1.2 0.1,-1.9 0.5,-1.5 1.5,-2.6 3,-3.3 1.5,-0.7 3.2,-0.7 5,-0.1 1.8,0.6 3.1,1.7 3.7,3.3 0.7,1.6 0.6,3.5 -0.1,5.6 -0.7,2.2 -2.2,4.3 -4.4,6.3 -2,2.1 -6.1,4.8 -11.9,8 l 0,0 z"
             class="st2" /></g></g><g
         id="g4993"><path
           style="color:#000000;font-style:normal;font-variant:normal;font-weight:normal;font-stretch:normal;font-size:medium;line-height:normal;font-family:sans-serif;text-indent:0;text-align:start;text-decoration:none;text-decoration-line:none;text-decoration-style:solid;text-decoration-color:#000000;letter-spacing:normal;word-spacing:normal;text-transform:none;direction:ltr;block-progression:tb;writing-mode:lr-tb;baseline-shift:baseline;text-anchor:start;white-space:normal;clip-rule:nonzero;display:inline;overflow:visible;visibility:visible;opacity:1;isolation:auto;mix-blend-mode:normal;color-interpolation:sRGB;color-interpolation-filters:linearRGB;solid-color:#000000;solid-opacity:1;fill:#ffffff;fill-opacity:1;fill-rule:evenodd;stroke:none;stroke-width:2.5;stroke-linecap:round;stroke-linejoin:round;stroke-miterlimit:4;stroke-dasharray:none;stroke-dashoffset:0;stroke-opacity:1;color-rendering:auto;image-rendering:auto;shape-rendering:auto;text-rendering:auto;enable-background:accumulate"
           d="m 160.73739,924.42652 c 7.0535,-0.14335 15.10152,0.099 21.85641,2.34218 6.75488,2.2432 12.16813,6.32755 14.51083,14.19775 1.29118,4.43529 0.4601,8.17807 -1.70214,11.60589 -2.16329,3.42946 -5.72509,6.47845 -9.80666,9.07547 -8.16314,5.19401 -18.2794,8.55203 -23.08695,10.39913 -6.84554,2.42355 -15.6991,5.44184 -22.04267,10.99558 -6.16199,5.39477 -9.71559,13.45443 -6.41424,24.89808 l -33.81502,18.0162 22.28442,-51.24667 a 1.2683137,1.2683137 0 0 0 -0.68958,-1.68233 L 81.119013,956.63847 c 26.416567,-15.75779 56.317247,-31.73838 79.618357,-32.21195 z"
           id="path4983"
           inkscape:connector-curvature="0" /><path
           id="path4862"
           d="m 164.5,931.9 c -23.73793,1.212 -46.46109,10.59246 -66.7,22.7 -0.4,0.2 -0.6,0.7 -0.6,1.1 l 0,0.1 c 0,0.5 0.4,0.9 0.8,1.1 0,0 32,12.8 34.4,13.7 -1.1,2.4 -17.9,37.7 -17.9,37.7 -0.1,0.2 -0.1,0.4 -0.1,0.6 0,0.4 0.1,0.7 0.4,1 0.4,0.4 1,0.5 1.5,0.2 0,0 14.4,-8 17,-9.5 0.4,3.5 1.6,6.7 4.1,9 6.6,6.3 18.1,5.8 18.6,5.7 8.6,0 23.5,-3.4 34.4,-6.2 0.5,-0.1 0.9,-0.6 1,-1.1 l 8.4,-61 0,0 0,-0.1 0,-0.1 c 0,-0.7 -0.5,-1.2 -1.2,-1.3 -0.7,-0.1 -1.4,0.4 -1.4,1.1 l 0,0.1 c -0.4,4.9 -4,8.8 -6.9,11.1 1.7,-5.2 1.8,-10.3 1.8,-10.6 -0.3,-4 -1.9,-7.2 -4.7,-9.7 -7.8,-6.6 -22.3,-5.6 -22.9,-5.6 z"
           style="clip-rule:evenodd;fill-rule:evenodd"
           inkscape:connector-curvature="0" /><path
           id="path49"
           d="m 164.6,934.5 c 0.2,0 14.1,-0.9 21.1,5.1 2.3,2 3.6,4.6 3.8,7.8 0,0 -0.2,7.9 -3.3,13.4 -0.1,0.2 -0.2,0.4 -0.2,0.6 0,0.3 0.1,0.7 0.4,0.9 0.4,0.4 1,0.5 1.6,0.2 0.3,-0.2 4.6,-2.5 7.9,-6.5 -1.8,13.2 -6.8,49.3 -7,50.7 -10.7,2.7 -24.7,5.9 -33,5.9 -0.2,0 -10.9,0.5 -16.7,-5 -2.4,-2.3 -3.6,-5.4 -3.6,-9.1 0,-0.5 -0.2,-0.9 -0.7,-1.1 -0.4,-0.2 -0.9,-0.2 -1.3,0 0,0 -10.3,5.8 -15,8.4 2.9,-6.1 16.7,-35.3 16.7,-35.3 0.1,-0.2 0.1,-0.4 0.1,-0.6 0,-0.2 0,-0.3 -0.1,-0.5 -0.1,-0.3 -0.4,-0.6 -0.7,-0.7 0,0 -28.9,-11.5 -33.2,-13.3 8.4,-4.7 38.3,-20.9 63.2,-20.9 z"
           style="clip-rule:evenodd;fill:#f2c21e;fill-opacity:1;fill-rule:evenodd"
           inkscape:connector-curvature="0" /><g
           id="g4968"><path
             inkscape:connector-curvature="0"
             id="path4858"
             d="m 160.38086,922.6543 c -24.7142,0.50229 -55.30356,17.40371 -81.917969,33.3789 a 1.250125,1.250125 0 0 0 0.175781,2.23047 l 41.320308,16.63281 -22.882808,52.62302 a 1.250125,1.250125 0 0 0 1.734375,1.6016 l 37.355473,-19.9023 a 1.250125,1.250125 0 0 0 0.60351,-1.4864 c -3.56098,-11.11753 -0.39152,-17.91069 5.33008,-22.9199 5.7216,-5.00921 14.17728,-7.97926 20.94336,-10.375 a 1.250125,1.250125 0 0 0 0.0312,-0.0117 c 4.58116,-1.76012 14.78029,-5.11659 23.20117,-10.47461 4.21044,-2.67901 8.00609,-5.86618 10.4375,-9.7207 2.43141,-3.85452 3.4315,-8.44091 1.96289,-13.47852 a 1.250125,1.250125 0 0 0 -0.002,-0.008 c -2.54828,-8.56084 -8.74809,-13.27523 -15.91211,-15.6543 -7.16402,-2.37906 -15.33726,-2.5787 -22.38086,-2.43554 z m 0.0508,2.5 c 6.95235,-0.1413 14.88495,0.0976 21.54297,2.30859 6.65801,2.21103 11.99363,6.23681 14.30273,13.99414 1.27267,4.37168 0.45351,8.06079 -1.67773,11.43945 -2.13226,3.38028 -5.64298,6.38555 -9.66602,8.94532 -8.04607,5.11953 -18.01726,8.42939 -22.75586,10.25 -6.74737,2.38879 -15.47397,5.3638 -21.72656,10.83789 -6.07363,5.31741 -9.57626,13.26149 -6.32226,24.54101 l -33.33008,17.7578 21.96484,-50.5117 A 1.250125,1.250125 0 0 0 122.084,973.05859 L 81.955078,956.9043 c 26.037732,-15.53181 55.509612,-31.28322 78.476562,-31.75 z"
             style="color:#000000;font-style:normal;font-variant:normal;font-weight:normal;font-stretch:normal;font-size:medium;line-height:normal;font-family:sans-serif;text-indent:0;text-align:start;text-decoration:none;text-decoration-line:none;text-decoration-style:solid;text-decoration-color:#000000;letter-spacing:normal;word-spacing:normal;text-transform:none;direction:ltr;block-progression:tb;writing-mode:lr-tb;baseline-shift:baseline;text-anchor:start;white-space:normal;clip-rule:nonzero;display:inline;overflow:visible;visibility:visible;opacity:1;isolation:auto;mix-blend-mode:normal;color-interpolation:sRGB;color-interpolation-filters:linearRGB;solid-color:#000000;solid-opacity:1;fill:#000000;fill-opacity:1;fill-rule:evenodd;stroke:none;stroke-width:2.5;stroke-linecap:round;stroke-linejoin:round;stroke-miterlimit:4;stroke-dasharray:none;stroke-dashoffset:0;stroke-opacity:1;color-rendering:auto;image-rendering:auto;shape-rendering:auto;text-rendering:auto;enable-background:accumulate" /></g></g><g
         id="g5000"
         transform="matrix(-1,0,0,1,576.59951,0)"><path
           inkscape:connector-curvature="0"
           id="path5002"
           d="m 160.73739,924.42652 c 7.0535,-0.14335 15.10152,0.099 21.85641,2.34218 6.75488,2.2432 12.16813,6.32755 14.51083,14.19775 1.29118,4.43529 0.4601,8.17807 -1.70214,11.60589 -2.16329,3.42946 -5.72509,6.47845 -9.80666,9.07547 -8.16314,5.19401 -18.2794,8.55203 -23.08695,10.39913 -6.84554,2.42355 -15.6991,5.44184 -22.04267,10.99558 -6.16199,5.39477 -9.71559,13.45443 -6.41424,24.89808 l -33.81502,18.0162 22.28442,-51.24667 a 1.2683137,1.2683137 0 0 0 -0.68958,-1.68233 L 81.119013,956.63847 c 26.416567,-15.75779 56.317247,-31.73838 79.618357,-32.21195 z"
           style="color:#000000;font-style:normal;font-variant:normal;font-weight:normal;font-stretch:normal;font-size:medium;line-height:normal;font-family:sans-serif;text-indent:0;text-align:start;text-decoration:none;text-decoration-line:none;text-decoration-style:solid;text-decoration-color:#000000;letter-spacing:normal;word-spacing:normal;text-transform:none;direction:ltr;block-progression:tb;writing-mode:lr-tb;baseline-shift:baseline;text-anchor:start;white-space:normal;clip-rule:nonzero;display:inline;overflow:visible;visibility:visible;opacity:1;isolation:auto;mix-blend-mode:normal;color-interpolation:sRGB;color-interpolation-filters:linearRGB;solid-color:#000000;solid-opacity:1;fill:#ffffff;fill-opacity:1;fill-rule:evenodd;stroke:none;stroke-width:2.5;stroke-linecap:round;stroke-linejoin:round;stroke-miterlimit:4;stroke-dasharray:none;stroke-dashoffset:0;stroke-opacity:1;color-rendering:auto;image-rendering:auto;shape-rendering:auto;text-rendering:auto;enable-background:accumulate" /><path
           inkscape:connector-curvature="0"
           style="clip-rule:evenodd;fill-rule:evenodd"
           d="m 164.5,931.9 c -23.73793,1.212 -46.46109,10.59246 -66.7,22.7 -0.4,0.2 -0.6,0.7 -0.6,1.1 l 0,0.1 c 0,0.5 0.4,0.9 0.8,1.1 0,0 32,12.8 34.4,13.7 -1.1,2.4 -17.9,37.7 -17.9,37.7 -0.1,0.2 -0.1,0.4 -0.1,0.6 0,0.4 0.1,0.7 0.4,1 0.4,0.4 1,0.5 1.5,0.2 0,0 14.4,-8 17,-9.5 0.4,3.5 1.6,6.7 4.1,9 6.6,6.3 18.1,5.8 18.6,5.7 8.6,0 23.5,-3.4 34.4,-6.2 0.5,-0.1 0.9,-0.6 1,-1.1 l 8.4,-61 0,0 0,-0.1 0,-0.1 c 0,-0.7 -0.5,-1.2 -1.2,-1.3 -0.7,-0.1 -1.4,0.4 -1.4,1.1 l 0,0.1 c -0.4,4.9 -4,8.8 -6.9,11.1 1.7,-5.2 1.8,-10.3 1.8,-10.6 -0.3,-4 -1.9,-7.2 -4.7,-9.7 -7.8,-6.6 -22.3,-5.6 -22.9,-5.6 z"
           id="path5004" /><path
           inkscape:connector-curvature="0"
           style="clip-rule:evenodd;fill:#f2c21e;fill-opacity:1;fill-rule:evenodd"
           d="m 164.6,934.5 c 0.2,0 14.1,-0.9 21.1,5.1 2.3,2 3.6,4.6 3.8,7.8 0,0 -0.2,7.9 -3.3,13.4 -0.1,0.2 -0.2,0.4 -0.2,0.6 0,0.3 0.1,0.7 0.4,0.9 0.4,0.4 1,0.5 1.6,0.2 0.3,-0.2 4.6,-2.5 7.9,-6.5 -1.8,13.2 -6.8,49.3 -7,50.7 -10.7,2.7 -24.7,5.9 -33,5.9 -0.2,0 -10.9,0.5 -16.7,-5 -2.4,-2.3 -3.6,-5.4 -3.6,-9.1 0,-0.5 -0.2,-0.9 -0.7,-1.1 -0.4,-0.2 -0.9,-0.2 -1.3,0 0,0 -10.3,5.8 -15,8.4 2.9,-6.1 16.7,-35.3 16.7,-35.3 0.1,-0.2 0.1,-0.4 0.1,-0.6 0,-0.2 0,-0.3 -0.1,-0.5 -0.1,-0.3 -0.4,-0.6 -0.7,-0.7 0,0 -28.9,-11.5 -33.2,-13.3 8.4,-4.7 38.3,-20.9 63.2,-20.9 z"
           id="path5006" /><g
           id="g5008"><path
             style="color:#000000;font-style:normal;font-variant:normal;font-weight:normal;font-stretch:normal;font-size:medium;line-height:normal;font-family:sans-serif;text-indent:0;text-align:start;text-decoration:none;text-decoration-line:none;text-decoration-style:solid;text-decoration-color:#000000;letter-spacing:normal;word-spacing:normal;text-transform:none;direction:ltr;block-progression:tb;writing-mode:lr-tb;baseline-shift:baseline;text-anchor:start;white-space:normal;clip-rule:nonzero;display:inline;overflow:visible;visibility:visible;opacity:1;isolation:auto;mix-blend-mode:normal;color-interpolation:sRGB;color-interpolation-filters:linearRGB;solid-color:#000000;solid-opacity:1;fill:#000000;fill-opacity:1;fill-rule:evenodd;stroke:none;stroke-width:2.5;stroke-linecap:round;stroke-linejoin:round;stroke-miterlimit:4;stroke-dasharray:none;stroke-dashoffset:0;stroke-opacity:1;color-rendering:auto;image-rendering:auto;shape-rendering:auto;text-rendering:auto;enable-background:accumulate"
             d="m 160.38086,922.6543 c -24.7142,0.50229 -55.30356,17.40371 -81.917969,33.3789 a 1.250125,1.250125 0 0 0 0.175781,2.23047 l 41.320308,16.63281 -22.882808,52.62302 a 1.250125,1.250125 0 0 0 1.734375,1.6016 l 37.355473,-19.9023 a 1.250125,1.250125 0 0 0 0.60351,-1.4864 c -3.56098,-11.11753 -0.39152,-17.91069 5.33008,-22.9199 5.7216,-5.00921 14.17728,-7.97926 20.94336,-10.375 a 1.250125,1.250125 0 0 0 0.0312,-0.0117 c 4.58116,-1.76012 14.78029,-5.11659 23.20117,-10.47461 4.21044,-2.67901 8.00609,-5.86618 10.4375,-9.7207 2.43141,-3.85452 3.4315,-8.44091 1.96289,-13.47852 a 1.250125,1.250125 0 0 0 -0.002,-0.008 c -2.54828,-8.56084 -8.74809,-13.27523 -15.91211,-15.6543 -7.16402,-2.37906 -15.33726,-2.5787 -22.38086,-2.43554 z m 0.0508,2.5 c 6.95235,-0.1413 14.88495,0.0976 21.54297,2.30859 6.65801,2.21103 11.99363,6.23681 14.30273,13.99414 1.27267,4.37168 0.45351,8.06079 -1.67773,11.43945 -2.13226,3.38028 -5.64298,6.38555 -9.66602,8.94532 -8.04607,5.11953 -18.01726,8.42939 -22.75586,10.25 -6.74737,2.38879 -15.47397,5.3638 -21.72656,10.83789 -6.07363,5.31741 -9.57626,13.26149 -6.32226,24.54101 l -33.33008,17.7578 21.96484,-50.5117 A 1.250125,1.250125 0 0 0 122.084,973.05859 L 81.955078,956.9043 c 26.037732,-15.53181 55.509612,-31.28322 78.476562,-31.75 z"
             id="path5010"
             inkscape:connector-curvature="0" /></g></g></g></g></svg>